<?xml version="1.0" encoding="utf-8" standalone="no"?>
<!DOCTYPE svg PUBLIC "-//W3C//DTD SVG 1.1//EN"
  "http://www.w3.org/Graphics/SVG/1.1/DTD/svg11.dtd">
<svg xmlns:xlink="http://www.w3.org/1999/xlink" width="460.8pt" height="345.6pt" viewBox="0 0 460.8 345.6" xmlns="http://www.w3.org/2000/svg" version="1.1">
 <metadata>
  <rdf:RDF xmlns:dc="http://purl.org/dc/elements/1.1/" xmlns:cc="http://creativecommons.org/ns#" xmlns:rdf="http://www.w3.org/1999/02/22-rdf-syntax-ns#">
   <cc:Work>
    <dc:type rdf:resource="http://purl.org/dc/dcmitype/StillImage"/>
    <dc:date>2024-07-09T09:29:31.735156</dc:date>
    <dc:format>image/svg+xml</dc:format>
    <dc:creator>
     <cc:Agent>
      <dc:title>Matplotlib v3.7.1, https://matplotlib.org/</dc:title>
     </cc:Agent>
    </dc:creator>
   </cc:Work>
  </rdf:RDF>
 </metadata>
 <defs>
  <style type="text/css">*{stroke-linejoin: round; stroke-linecap: butt}</style>
 </defs>
 <g id="figure_1">
  <g id="patch_1">
   <path d="M 0 345.6 
L 460.8 345.6 
L 460.8 0 
L 0 0 
z
" style="fill: #ffffff"/>
  </g>
  <g id="axes_1">
   <g id="patch_2">
    <path d="M 57.6 307.584 
L 414.72 307.584 
L 414.72 41.472 
L 57.6 41.472 
z
" style="fill: #ffffff"/>
   </g>
   <g id="matplotlib.axis_1">
    <g id="xtick_1">
     <g id="line2d_1">
      <defs>
       <path id="m348c34204c" d="M 0 0 
L 0 3.5 
" style="stroke: #000000; stroke-width: 0.8"/>
      </defs>
      <g>
       <use xlink:href="#m348c34204c" x="73.182117" y="307.584" style="stroke: #000000; stroke-width: 0.8"/>
      </g>
     </g>
     <g id="text_1">
      <!-- 0 -->
      <g transform="translate(70.000867 322.182437) scale(0.1 -0.1)">
       <defs>
        <path id="DejaVuSans-30" d="M 2034 4250 
Q 1547 4250 1301 3770 
Q 1056 3291 1056 2328 
Q 1056 1369 1301 889 
Q 1547 409 2034 409 
Q 2525 409 2770 889 
Q 3016 1369 3016 2328 
Q 3016 3291 2770 3770 
Q 2525 4250 2034 4250 
z
M 2034 4750 
Q 2819 4750 3233 4129 
Q 3647 3509 3647 2328 
Q 3647 1150 3233 529 
Q 2819 -91 2034 -91 
Q 1250 -91 836 529 
Q 422 1150 422 2328 
Q 422 3509 836 4129 
Q 1250 4750 2034 4750 
z
" transform="scale(0.015625)"/>
       </defs>
       <use xlink:href="#DejaVuSans-30"/>
      </g>
     </g>
    </g>
    <g id="xtick_2">
     <g id="line2d_2">
      <g>
       <use xlink:href="#m348c34204c" x="138.243148" y="307.584" style="stroke: #000000; stroke-width: 0.8"/>
      </g>
     </g>
     <g id="text_2">
      <!-- 100 -->
      <g transform="translate(128.699398 322.182437) scale(0.1 -0.1)">
       <defs>
        <path id="DejaVuSans-31" d="M 794 531 
L 1825 531 
L 1825 4091 
L 703 3866 
L 703 4441 
L 1819 4666 
L 2450 4666 
L 2450 531 
L 3481 531 
L 3481 0 
L 794 0 
L 794 531 
z
" transform="scale(0.015625)"/>
       </defs>
       <use xlink:href="#DejaVuSans-31"/>
       <use xlink:href="#DejaVuSans-30" x="63.623047"/>
       <use xlink:href="#DejaVuSans-30" x="127.246094"/>
      </g>
     </g>
    </g>
    <g id="xtick_3">
     <g id="line2d_3">
      <g>
       <use xlink:href="#m348c34204c" x="203.304179" y="307.584" style="stroke: #000000; stroke-width: 0.8"/>
      </g>
     </g>
     <g id="text_3">
      <!-- 200 -->
      <g transform="translate(193.760429 322.182437) scale(0.1 -0.1)">
       <defs>
        <path id="DejaVuSans-32" d="M 1228 531 
L 3431 531 
L 3431 0 
L 469 0 
L 469 531 
Q 828 903 1448 1529 
Q 2069 2156 2228 2338 
Q 2531 2678 2651 2914 
Q 2772 3150 2772 3378 
Q 2772 3750 2511 3984 
Q 2250 4219 1831 4219 
Q 1534 4219 1204 4116 
Q 875 4013 500 3803 
L 500 4441 
Q 881 4594 1212 4672 
Q 1544 4750 1819 4750 
Q 2544 4750 2975 4387 
Q 3406 4025 3406 3419 
Q 3406 3131 3298 2873 
Q 3191 2616 2906 2266 
Q 2828 2175 2409 1742 
Q 1991 1309 1228 531 
z
" transform="scale(0.015625)"/>
       </defs>
       <use xlink:href="#DejaVuSans-32"/>
       <use xlink:href="#DejaVuSans-30" x="63.623047"/>
       <use xlink:href="#DejaVuSans-30" x="127.246094"/>
      </g>
     </g>
    </g>
    <g id="xtick_4">
     <g id="line2d_4">
      <g>
       <use xlink:href="#m348c34204c" x="268.36521" y="307.584" style="stroke: #000000; stroke-width: 0.8"/>
      </g>
     </g>
     <g id="text_4">
      <!-- 300 -->
      <g transform="translate(258.82146 322.182437) scale(0.1 -0.1)">
       <defs>
        <path id="DejaVuSans-33" d="M 2597 2516 
Q 3050 2419 3304 2112 
Q 3559 1806 3559 1356 
Q 3559 666 3084 287 
Q 2609 -91 1734 -91 
Q 1441 -91 1130 -33 
Q 819 25 488 141 
L 488 750 
Q 750 597 1062 519 
Q 1375 441 1716 441 
Q 2309 441 2620 675 
Q 2931 909 2931 1356 
Q 2931 1769 2642 2001 
Q 2353 2234 1838 2234 
L 1294 2234 
L 1294 2753 
L 1863 2753 
Q 2328 2753 2575 2939 
Q 2822 3125 2822 3475 
Q 2822 3834 2567 4026 
Q 2313 4219 1838 4219 
Q 1578 4219 1281 4162 
Q 984 4106 628 3988 
L 628 4550 
Q 988 4650 1302 4700 
Q 1616 4750 1894 4750 
Q 2613 4750 3031 4423 
Q 3450 4097 3450 3541 
Q 3450 3153 3228 2886 
Q 3006 2619 2597 2516 
z
" transform="scale(0.015625)"/>
       </defs>
       <use xlink:href="#DejaVuSans-33"/>
       <use xlink:href="#DejaVuSans-30" x="63.623047"/>
       <use xlink:href="#DejaVuSans-30" x="127.246094"/>
      </g>
     </g>
    </g>
    <g id="xtick_5">
     <g id="line2d_5">
      <g>
       <use xlink:href="#m348c34204c" x="333.426242" y="307.584" style="stroke: #000000; stroke-width: 0.8"/>
      </g>
     </g>
     <g id="text_5">
      <!-- 400 -->
      <g transform="translate(323.882492 322.182437) scale(0.1 -0.1)">
       <defs>
        <path id="DejaVuSans-34" d="M 2419 4116 
L 825 1625 
L 2419 1625 
L 2419 4116 
z
M 2253 4666 
L 3047 4666 
L 3047 1625 
L 3713 1625 
L 3713 1100 
L 3047 1100 
L 3047 0 
L 2419 0 
L 2419 1100 
L 313 1100 
L 313 1709 
L 2253 4666 
z
" transform="scale(0.015625)"/>
       </defs>
       <use xlink:href="#DejaVuSans-34"/>
       <use xlink:href="#DejaVuSans-30" x="63.623047"/>
       <use xlink:href="#DejaVuSans-30" x="127.246094"/>
      </g>
     </g>
    </g>
    <g id="xtick_6">
     <g id="line2d_6">
      <g>
       <use xlink:href="#m348c34204c" x="398.487273" y="307.584" style="stroke: #000000; stroke-width: 0.8"/>
      </g>
     </g>
     <g id="text_6">
      <!-- 500 -->
      <g transform="translate(388.943523 322.182437) scale(0.1 -0.1)">
       <defs>
        <path id="DejaVuSans-35" d="M 691 4666 
L 3169 4666 
L 3169 4134 
L 1269 4134 
L 1269 2991 
Q 1406 3038 1543 3061 
Q 1681 3084 1819 3084 
Q 2600 3084 3056 2656 
Q 3513 2228 3513 1497 
Q 3513 744 3044 326 
Q 2575 -91 1722 -91 
Q 1428 -91 1123 -41 
Q 819 9 494 109 
L 494 744 
Q 775 591 1075 516 
Q 1375 441 1709 441 
Q 2250 441 2565 725 
Q 2881 1009 2881 1497 
Q 2881 1984 2565 2268 
Q 2250 2553 1709 2553 
Q 1456 2553 1204 2497 
Q 953 2441 691 2322 
L 691 4666 
z
" transform="scale(0.015625)"/>
       </defs>
       <use xlink:href="#DejaVuSans-35"/>
       <use xlink:href="#DejaVuSans-30" x="63.623047"/>
       <use xlink:href="#DejaVuSans-30" x="127.246094"/>
      </g>
     </g>
    </g>
    <g id="text_7">
     <!-- Epoch -->
     <g transform="translate(220.849063 335.860562) scale(0.1 -0.1)">
      <defs>
       <path id="DejaVuSans-45" d="M 628 4666 
L 3578 4666 
L 3578 4134 
L 1259 4134 
L 1259 2753 
L 3481 2753 
L 3481 2222 
L 1259 2222 
L 1259 531 
L 3634 531 
L 3634 0 
L 628 0 
L 628 4666 
z
" transform="scale(0.015625)"/>
       <path id="DejaVuSans-70" d="M 1159 525 
L 1159 -1331 
L 581 -1331 
L 581 3500 
L 1159 3500 
L 1159 2969 
Q 1341 3281 1617 3432 
Q 1894 3584 2278 3584 
Q 2916 3584 3314 3078 
Q 3713 2572 3713 1747 
Q 3713 922 3314 415 
Q 2916 -91 2278 -91 
Q 1894 -91 1617 61 
Q 1341 213 1159 525 
z
M 3116 1747 
Q 3116 2381 2855 2742 
Q 2594 3103 2138 3103 
Q 1681 3103 1420 2742 
Q 1159 2381 1159 1747 
Q 1159 1113 1420 752 
Q 1681 391 2138 391 
Q 2594 391 2855 752 
Q 3116 1113 3116 1747 
z
" transform="scale(0.015625)"/>
       <path id="DejaVuSans-6f" d="M 1959 3097 
Q 1497 3097 1228 2736 
Q 959 2375 959 1747 
Q 959 1119 1226 758 
Q 1494 397 1959 397 
Q 2419 397 2687 759 
Q 2956 1122 2956 1747 
Q 2956 2369 2687 2733 
Q 2419 3097 1959 3097 
z
M 1959 3584 
Q 2709 3584 3137 3096 
Q 3566 2609 3566 1747 
Q 3566 888 3137 398 
Q 2709 -91 1959 -91 
Q 1206 -91 779 398 
Q 353 888 353 1747 
Q 353 2609 779 3096 
Q 1206 3584 1959 3584 
z
" transform="scale(0.015625)"/>
       <path id="DejaVuSans-63" d="M 3122 3366 
L 3122 2828 
Q 2878 2963 2633 3030 
Q 2388 3097 2138 3097 
Q 1578 3097 1268 2742 
Q 959 2388 959 1747 
Q 959 1106 1268 751 
Q 1578 397 2138 397 
Q 2388 397 2633 464 
Q 2878 531 3122 666 
L 3122 134 
Q 2881 22 2623 -34 
Q 2366 -91 2075 -91 
Q 1284 -91 818 406 
Q 353 903 353 1747 
Q 353 2603 823 3093 
Q 1294 3584 2113 3584 
Q 2378 3584 2631 3529 
Q 2884 3475 3122 3366 
z
" transform="scale(0.015625)"/>
       <path id="DejaVuSans-68" d="M 3513 2113 
L 3513 0 
L 2938 0 
L 2938 2094 
Q 2938 2591 2744 2837 
Q 2550 3084 2163 3084 
Q 1697 3084 1428 2787 
Q 1159 2491 1159 1978 
L 1159 0 
L 581 0 
L 581 4863 
L 1159 4863 
L 1159 2956 
Q 1366 3272 1645 3428 
Q 1925 3584 2291 3584 
Q 2894 3584 3203 3211 
Q 3513 2838 3513 2113 
z
" transform="scale(0.015625)"/>
      </defs>
      <use xlink:href="#DejaVuSans-45"/>
      <use xlink:href="#DejaVuSans-70" x="63.183594"/>
      <use xlink:href="#DejaVuSans-6f" x="126.660156"/>
      <use xlink:href="#DejaVuSans-63" x="187.841797"/>
      <use xlink:href="#DejaVuSans-68" x="242.822266"/>
     </g>
    </g>
   </g>
   <g id="matplotlib.axis_2">
    <g id="ytick_1">
     <g id="line2d_7">
      <defs>
       <path id="md2f39da4ed" d="M 0 0 
L -3.5 0 
" style="stroke: #000000; stroke-width: 0.8"/>
      </defs>
      <g>
       <use xlink:href="#md2f39da4ed" x="57.6" y="295.488" style="stroke: #000000; stroke-width: 0.8"/>
      </g>
     </g>
     <g id="text_8">
      <!-- 0 -->
      <g transform="translate(44.2375 299.287219) scale(0.1 -0.1)">
       <use xlink:href="#DejaVuSans-30"/>
      </g>
     </g>
    </g>
    <g id="ytick_2">
     <g id="line2d_8">
      <g>
       <use xlink:href="#md2f39da4ed" x="57.6" y="253.074914" style="stroke: #000000; stroke-width: 0.8"/>
      </g>
     </g>
     <g id="text_9">
      <!-- 10000 -->
      <g transform="translate(18.7875 256.874133) scale(0.1 -0.1)">
       <use xlink:href="#DejaVuSans-31"/>
       <use xlink:href="#DejaVuSans-30" x="63.623047"/>
       <use xlink:href="#DejaVuSans-30" x="127.246094"/>
       <use xlink:href="#DejaVuSans-30" x="190.869141"/>
       <use xlink:href="#DejaVuSans-30" x="254.492188"/>
      </g>
     </g>
    </g>
    <g id="ytick_3">
     <g id="line2d_9">
      <g>
       <use xlink:href="#md2f39da4ed" x="57.6" y="210.661828" style="stroke: #000000; stroke-width: 0.8"/>
      </g>
     </g>
     <g id="text_10">
      <!-- 20000 -->
      <g transform="translate(18.7875 214.461047) scale(0.1 -0.1)">
       <use xlink:href="#DejaVuSans-32"/>
       <use xlink:href="#DejaVuSans-30" x="63.623047"/>
       <use xlink:href="#DejaVuSans-30" x="127.246094"/>
       <use xlink:href="#DejaVuSans-30" x="190.869141"/>
       <use xlink:href="#DejaVuSans-30" x="254.492188"/>
      </g>
     </g>
    </g>
    <g id="ytick_4">
     <g id="line2d_10">
      <g>
       <use xlink:href="#md2f39da4ed" x="57.6" y="168.248743" style="stroke: #000000; stroke-width: 0.8"/>
      </g>
     </g>
     <g id="text_11">
      <!-- 30000 -->
      <g transform="translate(18.7875 172.047961) scale(0.1 -0.1)">
       <use xlink:href="#DejaVuSans-33"/>
       <use xlink:href="#DejaVuSans-30" x="63.623047"/>
       <use xlink:href="#DejaVuSans-30" x="127.246094"/>
       <use xlink:href="#DejaVuSans-30" x="190.869141"/>
       <use xlink:href="#DejaVuSans-30" x="254.492188"/>
      </g>
     </g>
    </g>
    <g id="ytick_5">
     <g id="line2d_11">
      <g>
       <use xlink:href="#md2f39da4ed" x="57.6" y="125.835657" style="stroke: #000000; stroke-width: 0.8"/>
      </g>
     </g>
     <g id="text_12">
      <!-- 40000 -->
      <g transform="translate(18.7875 129.634876) scale(0.1 -0.1)">
       <use xlink:href="#DejaVuSans-34"/>
       <use xlink:href="#DejaVuSans-30" x="63.623047"/>
       <use xlink:href="#DejaVuSans-30" x="127.246094"/>
       <use xlink:href="#DejaVuSans-30" x="190.869141"/>
       <use xlink:href="#DejaVuSans-30" x="254.492188"/>
      </g>
     </g>
    </g>
    <g id="ytick_6">
     <g id="line2d_12">
      <g>
       <use xlink:href="#md2f39da4ed" x="57.6" y="83.422571" style="stroke: #000000; stroke-width: 0.8"/>
      </g>
     </g>
     <g id="text_13">
      <!-- 50000 -->
      <g transform="translate(18.7875 87.22179) scale(0.1 -0.1)">
       <use xlink:href="#DejaVuSans-35"/>
       <use xlink:href="#DejaVuSans-30" x="63.623047"/>
       <use xlink:href="#DejaVuSans-30" x="127.246094"/>
       <use xlink:href="#DejaVuSans-30" x="190.869141"/>
       <use xlink:href="#DejaVuSans-30" x="254.492188"/>
      </g>
     </g>
    </g>
    <g id="text_14">
     <!-- Reward -->
     <g transform="translate(12.707812 193.149094) rotate(-90) scale(0.1 -0.1)">
      <defs>
       <path id="DejaVuSans-52" d="M 2841 2188 
Q 3044 2119 3236 1894 
Q 3428 1669 3622 1275 
L 4263 0 
L 3584 0 
L 2988 1197 
Q 2756 1666 2539 1819 
Q 2322 1972 1947 1972 
L 1259 1972 
L 1259 0 
L 628 0 
L 628 4666 
L 2053 4666 
Q 2853 4666 3247 4331 
Q 3641 3997 3641 3322 
Q 3641 2881 3436 2590 
Q 3231 2300 2841 2188 
z
M 1259 4147 
L 1259 2491 
L 2053 2491 
Q 2509 2491 2742 2702 
Q 2975 2913 2975 3322 
Q 2975 3731 2742 3939 
Q 2509 4147 2053 4147 
L 1259 4147 
z
" transform="scale(0.015625)"/>
       <path id="DejaVuSans-65" d="M 3597 1894 
L 3597 1613 
L 953 1613 
Q 991 1019 1311 708 
Q 1631 397 2203 397 
Q 2534 397 2845 478 
Q 3156 559 3463 722 
L 3463 178 
Q 3153 47 2828 -22 
Q 2503 -91 2169 -91 
Q 1331 -91 842 396 
Q 353 884 353 1716 
Q 353 2575 817 3079 
Q 1281 3584 2069 3584 
Q 2775 3584 3186 3129 
Q 3597 2675 3597 1894 
z
M 3022 2063 
Q 3016 2534 2758 2815 
Q 2500 3097 2075 3097 
Q 1594 3097 1305 2825 
Q 1016 2553 972 2059 
L 3022 2063 
z
" transform="scale(0.015625)"/>
       <path id="DejaVuSans-77" d="M 269 3500 
L 844 3500 
L 1563 769 
L 2278 3500 
L 2956 3500 
L 3675 769 
L 4391 3500 
L 4966 3500 
L 4050 0 
L 3372 0 
L 2619 2869 
L 1863 0 
L 1184 0 
L 269 3500 
z
" transform="scale(0.015625)"/>
       <path id="DejaVuSans-61" d="M 2194 1759 
Q 1497 1759 1228 1600 
Q 959 1441 959 1056 
Q 959 750 1161 570 
Q 1363 391 1709 391 
Q 2188 391 2477 730 
Q 2766 1069 2766 1631 
L 2766 1759 
L 2194 1759 
z
M 3341 1997 
L 3341 0 
L 2766 0 
L 2766 531 
Q 2569 213 2275 61 
Q 1981 -91 1556 -91 
Q 1019 -91 701 211 
Q 384 513 384 1019 
Q 384 1609 779 1909 
Q 1175 2209 1959 2209 
L 2766 2209 
L 2766 2266 
Q 2766 2663 2505 2880 
Q 2244 3097 1772 3097 
Q 1472 3097 1187 3025 
Q 903 2953 641 2809 
L 641 3341 
Q 956 3463 1253 3523 
Q 1550 3584 1831 3584 
Q 2591 3584 2966 3190 
Q 3341 2797 3341 1997 
z
" transform="scale(0.015625)"/>
       <path id="DejaVuSans-72" d="M 2631 2963 
Q 2534 3019 2420 3045 
Q 2306 3072 2169 3072 
Q 1681 3072 1420 2755 
Q 1159 2438 1159 1844 
L 1159 0 
L 581 0 
L 581 3500 
L 1159 3500 
L 1159 2956 
Q 1341 3275 1631 3429 
Q 1922 3584 2338 3584 
Q 2397 3584 2469 3576 
Q 2541 3569 2628 3553 
L 2631 2963 
z
" transform="scale(0.015625)"/>
       <path id="DejaVuSans-64" d="M 2906 2969 
L 2906 4863 
L 3481 4863 
L 3481 0 
L 2906 0 
L 2906 525 
Q 2725 213 2448 61 
Q 2172 -91 1784 -91 
Q 1150 -91 751 415 
Q 353 922 353 1747 
Q 353 2572 751 3078 
Q 1150 3584 1784 3584 
Q 2172 3584 2448 3432 
Q 2725 3281 2906 2969 
z
M 947 1747 
Q 947 1113 1208 752 
Q 1469 391 1925 391 
Q 2381 391 2643 752 
Q 2906 1113 2906 1747 
Q 2906 2381 2643 2742 
Q 2381 3103 1925 3103 
Q 1469 3103 1208 2742 
Q 947 2381 947 1747 
z
" transform="scale(0.015625)"/>
      </defs>
      <use xlink:href="#DejaVuSans-52"/>
      <use xlink:href="#DejaVuSans-65" x="64.982422"/>
      <use xlink:href="#DejaVuSans-77" x="126.505859"/>
      <use xlink:href="#DejaVuSans-61" x="208.292969"/>
      <use xlink:href="#DejaVuSans-72" x="269.572266"/>
      <use xlink:href="#DejaVuSans-64" x="308.935547"/>
     </g>
    </g>
   </g>
   <g id="line2d_13">
    <path d="M 73.832727 215.166098 
L 74.483338 224.132224 
L 75.133948 287.815473 
L 75.784558 269.128267 
L 76.435169 284.439391 
L 77.085779 281.881882 
L 77.736389 271.299817 
L 78.386999 277.632091 
L 79.68822 243.633761 
L 80.33883 275.519919 
L 80.989441 208.380004 
L 81.640051 221.159067 
L 82.290661 293.787235 
L 82.941272 233.916923 
L 83.591882 264.929372 
L 84.242492 241.152596 
L 85.543713 272.96241 
L 86.194323 249.189876 
L 86.844934 241.110183 
L 87.495544 237.704412 
L 88.146154 265.328055 
L 88.796764 281.003931 
L 89.447375 287.399825 
L 90.097985 230.023402 
L 90.748595 190.939744 
L 91.399206 285.274929 
L 92.049816 216.875346 
L 92.700426 233.441897 
L 93.351037 223.686887 
L 94.001647 266.613171 
L 94.652257 180.467953 
L 95.302868 54.034544 
L 95.953478 292.510601 
L 96.604088 262.337932 
L 97.254698 259.377499 
L 97.905309 264.47131 
L 98.555919 222.88528 
L 99.206529 254.656922 
L 99.85714 233.123799 
L 100.50775 244.482023 
L 101.15836 258.936403 
L 102.459581 269.539674 
L 103.110191 245.73745 
L 103.760802 245.835 
L 104.411412 248.299201 
L 105.062022 221.154826 
L 106.363243 97.244996 
L 107.013853 284.447874 
L 107.664463 250.466509 
L 108.315074 204.978475 
L 108.965684 211.395575 
L 109.616294 169.385413 
L 110.266905 266.574999 
L 110.917515 179.505176 
L 111.568125 256.862403 
L 112.218736 259.818595 
L 112.869346 95.094652 
L 113.519956 268.267282 
L 114.170567 292.514843 
L 114.821177 253.859556 
L 115.471787 257.710664 
L 116.122398 225.816024 
L 116.773008 238.959839 
L 117.423618 186.363372 
L 118.074228 277.203719 
L 118.724839 281.466234 
L 119.375449 256.370411 
L 120.026059 182.983049 
L 120.67667 190.621645 
L 121.32728 264.068386 
L 121.97789 241.517348 
L 122.628501 277.195236 
L 123.279111 252.158792 
L 123.929721 259.750734 
L 124.580332 243.697381 
L 125.230942 280.622213 
L 126.532163 285.707542 
L 127.182773 281.016655 
L 127.833383 232.267054 
L 128.483993 148.63269 
L 129.134604 265.328055 
L 130.435824 202.488827 
L 131.086435 286.547322 
L 131.737045 248.786951 
L 132.387655 268.691412 
L 133.038266 252.099413 
L 133.688876 274.234803 
L 134.339486 242.836395 
L 134.990097 263.203159 
L 135.640707 256.344963 
L 136.291317 246.683262 
L 136.941927 253.036742 
L 138.243148 292.913526 
L 138.893758 275.49023 
L 139.544369 272.945445 
L 140.194979 289.948851 
L 140.845589 247.93869 
L 141.4962 291.233967 
L 142.14681 277.216443 
L 142.79742 278.501559 
L 143.448031 208.439383 
L 144.098641 215.988912 
L 145.399862 281.45351 
L 146.050472 269.153715 
L 146.701082 272.538279 
L 147.351692 271.265887 
L 148.002303 225.417341 
L 148.652913 275.066099 
L 149.303523 278.01805 
L 149.954134 256.866644 
L 150.604744 258.100865 
L 151.255354 263.198918 
L 151.905965 272.96241 
L 152.556575 257.239879 
L 153.207185 225.824507 
L 153.857796 250.08055 
L 154.508406 249.134739 
L 155.159016 272.953928 
L 155.809627 288.252328 
L 156.460237 240.304334 
L 157.110847 182.932153 
L 157.761457 267.87284 
L 158.412068 235.142662 
L 159.062678 251.314771 
L 159.713288 216.485145 
L 160.363899 247.501835 
L 161.665119 224.060122 
L 162.31573 253.002812 
L 162.96634 251.713454 
L 164.267561 292.934732 
L 165.568781 213.113305 
L 166.219392 250.055103 
L 166.870002 266.587723 
L 167.520612 236.410813 
L 168.171222 285.283412 
L 168.821833 251.263875 
L 169.472443 259.750734 
L 170.123053 272.097183 
L 170.773664 243.642244 
L 171.424274 243.235078 
L 172.074884 248.803916 
L 172.725495 285.266446 
L 173.376105 241.55552 
L 174.026715 263.673944 
L 174.677326 243.710105 
L 175.327936 258.508031 
L 175.978546 281.449269 
L 176.629156 290.39843 
L 177.930377 273.831878 
L 178.580987 242.810947 
L 179.231598 235.583758 
L 179.882208 220.25991 
L 180.532818 287.823955 
L 181.183429 246.662056 
L 181.834039 250.89064 
L 182.484649 249.537663 
L 183.13526 278.08167 
L 183.78587 235.070559 
L 184.43648 246.246407 
L 185.087091 214.860724 
L 185.737701 295.471035 
L 186.388311 243.710105 
L 187.038921 265.264435 
L 187.689532 279.31589 
L 188.340142 266.587723 
L 188.990752 249.177152 
L 189.641363 290.805595 
L 190.291973 182.554676 
L 190.942583 293.354622 
L 191.593194 283.548716 
L 192.243804 220.756143 
L 192.894414 278.043498 
L 193.545025 273.395024 
L 194.195635 280.60949 
L 194.846245 252.069724 
L 195.496856 234.790633 
L 196.147466 191.525044 
L 196.798076 240.287369 
L 197.448686 278.497318 
L 198.099297 178.699327 
L 198.749907 247.510317 
L 199.400517 234.752461 
L 200.051128 252.557475 
L 200.701738 282.730144 
L 201.352348 271.6985 
L 202.002959 224.094053 
L 202.653569 281.012414 
L 203.304179 269.955322 
L 203.95479 261.090987 
L 204.6054 278.01805 
L 205.25601 278.484594 
L 205.906621 88.261904 
L 206.557231 275.498713 
L 207.207841 241.525831 
L 207.858451 183.776173 
L 208.509062 281.449269 
L 209.159672 185.599936 
L 209.810282 283.162757 
L 210.460893 208.426659 
L 211.111503 218.202875 
L 211.762113 258.936403 
L 212.412724 213.961567 
L 213.063334 242.374093 
L 213.713944 244.952808 
L 214.364555 257.239879 
L 215.015165 249.164428 
L 215.665775 284.023743 
L 216.316385 268.665965 
L 216.966996 278.89176 
L 218.268216 234.332572 
L 218.918827 257.278051 
L 219.569437 149.913566 
L 220.220047 286.9969 
L 220.870658 263.186194 
L 221.521268 264.488276 
L 222.171878 242.391058 
L 222.822489 239.884445 
L 223.473099 241.517348 
L 224.123709 292.50636 
L 224.77432 278.450663 
L 225.42493 272.131114 
L 226.07554 258.100865 
L 226.72615 276.792312 
L 227.376761 261.510877 
L 228.027371 275.969498 
L 228.677981 111.656962 
L 229.328592 165.093209 
L 229.979202 256.832714 
L 230.629812 219.950294 
L 231.280423 209.724499 
L 231.931033 207.13306 
L 232.581643 260.251208 
L 233.232254 188.908157 
L 233.882864 289.109072 
L 234.533474 267.448709 
L 235.184085 289.100589 
L 235.834695 249.189876 
L 236.485305 268.729584 
L 237.135915 270.387936 
L 237.786526 293.791477 
L 238.437136 236.440502 
L 239.087746 275.108512 
L 239.738357 279.307408 
L 240.388967 259.335086 
L 241.039577 262.762063 
L 241.690188 257.702182 
L 242.340798 243.230837 
L 242.991408 280.172635 
L 243.642019 269.17068 
L 244.292629 267.469916 
L 244.943239 280.995449 
L 245.59385 275.087306 
L 246.24446 275.935567 
L 246.89507 241.568244 
L 247.54568 270.833273 
L 248.196291 278.043498 
L 248.846901 266.176316 
L 249.497511 240.715741 
L 250.148122 222.406012 
L 250.798732 93.898603 
L 251.449342 259.810112 
L 252.099953 118.48971 
L 252.750563 202.090144 
L 253.401173 163.816575 
L 254.051784 246.229442 
L 254.702394 290.394188 
L 255.353004 276.809277 
L 256.003615 269.573605 
L 256.654225 53.568 
L 257.304835 260.230002 
L 257.955445 110.812942 
L 258.606056 244.528677 
L 259.256666 158.319839 
L 259.907276 222.796212 
L 260.557887 228.415946 
L 261.208497 248.354338 
L 261.859107 258.139037 
L 262.509718 292.497877 
L 263.160328 272.915756 
L 263.810938 200.389379 
L 265.112159 262.350656 
L 265.762769 224.518184 
L 266.413379 197.407739 
L 267.06399 272.551003 
L 267.7146 254.224309 
L 268.36521 264.878476 
L 269.015821 257.252603 
L 269.666431 243.688898 
L 270.317041 221.994605 
L 270.967652 252.167274 
L 271.618262 248.316166 
L 272.268872 205.008164 
L 273.570093 285.707542 
L 274.220703 257.235638 
L 274.871314 258.558926 
L 275.521924 265.718255 
L 276.172534 227.504065 
L 276.823144 227.096899 
L 277.473755 252.616853 
L 278.774975 229.285414 
L 279.425586 286.555804 
L 280.076196 250.008448 
L 280.726806 197.41198 
L 281.377417 283.120344 
L 282.028027 137.164192 
L 282.678637 230.888629 
L 283.329248 261.493912 
L 283.979858 279.354062 
L 284.630468 281.423821 
L 285.281079 254.741748 
L 285.931689 161.263307 
L 286.582299 244.935843 
L 287.232909 276.800794 
L 287.88352 220.310805 
L 288.53413 264.865752 
L 289.18474 253.83835 
L 289.835351 282.700455 
L 290.485961 244.935843 
L 291.136571 222.053983 
L 291.787182 283.150033 
L 292.437792 261.922284 
L 293.088402 252.595646 
L 293.739013 283.162757 
L 294.389623 236.894322 
L 295.040233 261.493912 
L 295.690844 242.840637 
L 296.341454 250.843986 
L 296.992064 227.962126 
L 298.293285 281.894606 
L 298.943895 282.75135 
L 299.594505 282.742868 
L 300.245116 270.862962 
L 300.895726 293.354622 
L 301.546336 285.711784 
L 302.196947 291.658098 
L 302.847557 294.639738 
L 303.498167 295.488 
L 304.148778 281.877641 
L 304.799388 273.802189 
L 305.449998 295.483759 
L 306.100608 294.622773 
L 306.751219 295.063869 
L 307.401829 289.965816 
L 308.052439 295.488 
L 308.70305 275.927085 
L 309.35366 287.840921 
L 310.00427 237.751066 
L 310.654881 293.346139 
L 311.305491 232.258572 
L 312.606712 291.670822 
L 313.257322 250.072068 
L 313.907932 294.639738 
L 314.558543 294.639738 
L 315.209153 287.840921 
L 315.859763 285.283412 
L 317.160984 263.623049 
L 317.811594 289.957334 
L 318.462204 268.695654 
L 319.112815 260.22576 
L 319.763425 295.488 
L 320.414035 265.773392 
L 321.064646 271.681535 
L 322.365866 295.488 
L 323.016477 294.215607 
L 323.667087 282.318737 
L 324.317697 254.270963 
L 324.968308 280.64342 
L 325.618918 240.736948 
L 326.269528 292.930491 
L 326.920138 246.225201 
L 327.570749 295.475276 
L 328.221359 292.938974 
L 328.871969 239.884445 
L 329.52258 294.215607 
L 330.17319 292.094953 
L 330.8238 295.488 
L 331.474411 287.429514 
L 332.125021 292.934732 
L 332.775631 277.229167 
L 333.426242 286.984176 
L 334.076852 272.126872 
L 335.378073 292.077988 
L 336.028683 295.488 
L 336.679293 292.510601 
L 337.329903 271.732431 
L 337.980514 286.157121 
L 338.631124 282.742868 
L 339.281734 294.211366 
L 339.932345 294.627014 
L 340.582955 278.904483 
L 341.233565 295.063869 
L 341.884176 293.363104 
L 342.534786 275.524161 
L 343.185396 295.488 
L 343.836007 295.488 
L 344.486617 279.349821 
L 345.137227 292.082229 
L 345.787837 288.697665 
L 346.438448 268.296971 
L 347.089058 295.488 
L 347.739668 286.564287 
L 348.390279 293.358863 
L 349.040889 273.814913 
L 349.691499 295.063869 
L 350.34211 294.211366 
L 350.99272 278.917207 
L 351.64333 295.063869 
L 352.293941 295.488 
L 352.944551 293.791477 
L 353.595161 290.389947 
L 354.245772 281.478958 
L 354.896382 295.488 
L 355.546992 295.488 
L 356.197602 295.059628 
L 356.848213 294.207125 
L 357.498823 292.090712 
L 358.149433 295.488 
L 358.800044 278.938414 
L 359.450654 286.15288 
L 360.101264 294.639738 
L 360.751875 295.488 
L 361.402485 292.094953 
L 362.053095 294.215607 
L 362.703706 295.488 
L 363.354316 295.488 
L 364.004926 291.66234 
L 364.655537 293.782994 
L 365.306147 294.211366 
L 365.956757 295.055387 
L 366.607367 292.938974 
L 367.257978 294.631256 
L 367.908588 292.519084 
L 368.559198 293.363104 
L 369.209809 295.488 
L 369.860419 295.063869 
L 370.511029 292.069505 
L 371.16164 293.358863 
L 371.81225 283.599612 
L 373.113471 295.488 
L 373.764081 288.277775 
L 374.414691 295.059628 
L 375.065302 294.202884 
L 375.715912 295.063869 
L 376.366522 295.063869 
L 377.667743 284.418185 
L 378.318353 292.514843 
L 378.968963 294.639738 
L 379.619574 294.215607 
L 380.270184 295.055387 
L 380.920794 289.970058 
L 382.222015 294.635497 
L 382.872625 292.50636 
L 383.523236 293.778753 
L 384.824456 287.429514 
L 385.475066 295.059628 
L 386.125677 294.635497 
L 386.776287 293.778753 
L 387.426897 292.086471 
L 388.077508 292.514843 
L 388.728118 295.488 
L 389.378728 285.300377 
L 390.029339 292.943215 
L 390.679949 281.478958 
L 391.330559 291.233967 
L 391.98117 287.811231 
L 392.63178 289.974299 
L 393.28239 288.6807 
L 393.933001 293.341898 
L 394.583611 295.055387 
L 395.234221 289.957334 
L 395.884831 289.961575 
L 396.535442 290.805595 
L 397.186052 294.211366 
L 397.836662 289.117555 
L 398.487273 293.354622 
L 398.487273 293.354622 
" clip-path="url(#p1c2344d4b3)" style="fill: none; stroke: #1f77b4; stroke-width: 1.5; stroke-linecap: square"/>
   </g>
   <g id="line2d_14">
    <path d="M 73.832727 295.488 
L 105.062022 295.488 
L 105.712633 245.566866 
L 106.363243 243.208442 
L 107.013853 244.414754 
L 107.664463 243.667775 
L 108.965684 240.923905 
L 109.616294 238.673973 
L 110.266905 238.57948 
L 110.917515 236.616939 
L 111.568125 236.540512 
L 112.218736 236.86421 
L 112.869346 233.255702 
L 114.170567 235.880566 
L 114.821177 235.082012 
L 115.471787 235.557887 
L 116.122398 234.775619 
L 116.773008 234.731764 
L 117.423618 233.340954 
L 118.074228 233.425781 
L 118.724839 234.071309 
L 119.375449 234.376513 
L 120.026059 233.282086 
L 120.67667 231.787956 
L 121.32728 231.449244 
L 121.97789 230.531597 
L 122.628501 231.475031 
L 123.279111 232.699415 
L 123.929721 232.18893 
L 124.580332 232.725368 
L 125.230942 233.668977 
L 125.881552 234.857815 
L 126.532163 235.239702 
L 127.182773 237.250675 
L 127.833383 240.815329 
L 128.483993 237.937767 
L 129.134604 237.997572 
L 129.785214 237.513723 
L 130.435824 236.274072 
L 131.086435 237.547314 
L 131.737045 237.429916 
L 132.387655 238.141267 
L 133.038266 238.293614 
L 133.688876 238.599581 
L 134.339486 238.167137 
L 134.990097 238.040407 
L 135.640707 238.25256 
L 136.941927 238.364275 
L 137.592538 239.416969 
L 138.243148 241.996869 
L 138.893758 245.561776 
L 139.544369 245.331726 
L 140.845589 246.980576 
L 141.4962 248.577346 
L 142.14681 250.733965 
L 142.79742 250.972497 
L 143.448031 251.551183 
L 144.098641 250.733712 
L 144.749251 250.470581 
L 145.399862 254.197759 
L 146.050472 254.215487 
L 146.701082 253.815954 
L 147.351692 254.164081 
L 148.002303 253.518214 
L 148.652913 254.503216 
L 149.303523 255.284383 
L 149.954134 256.694449 
L 151.255354 255.947042 
L 151.905965 256.278883 
L 152.556575 257.76402 
L 153.207185 258.468078 
L 153.857796 258.188321 
L 154.508406 258.340669 
L 155.159016 258.255842 
L 155.809627 258.977714 
L 156.460237 258.588785 
L 157.110847 257.37348 
L 157.761457 257.118492 
L 158.412068 256.158768 
L 159.062678 255.470914 
L 159.713288 254.180285 
L 160.363899 254.48498 
L 161.014509 256.242153 
L 161.665119 255.416796 
L 162.31573 255.773149 
L 162.96634 256.757642 
L 163.61695 256.510966 
L 164.267561 257.393925 
L 164.918171 257.05513 
L 165.568781 256.275404 
L 166.219392 255.791812 
L 166.870002 256.266839 
L 167.520612 255.730992 
L 168.171222 256.309761 
L 170.123053 256.501809 
L 170.773664 255.51638 
L 171.424274 254.871278 
L 172.074884 254.388448 
L 173.376105 254.167134 
L 175.327936 252.545939 
L 176.629156 255.494328 
L 177.279767 256.190325 
L 177.930377 256.037891 
L 178.580987 255.511037 
L 179.231598 254.771947 
L 179.882208 253.751825 
L 180.532818 254.999959 
L 181.834039 253.889328 
L 182.484649 253.74275 
L 183.13526 254.142365 
L 184.43648 253.045478 
L 185.087091 252.197895 
L 185.737701 253.590826 
L 186.388311 253.463416 
L 187.038921 253.786013 
L 187.689532 253.913252 
L 188.340142 253.479959 
L 188.990752 253.657415 
L 189.641363 255.814882 
L 190.291973 254.108522 
L 190.942583 255.272761 
L 191.593194 255.91744 
L 192.243804 256.002859 
L 193.545025 257.351764 
L 194.195635 258.482752 
L 194.846245 258.464089 
L 195.496856 258.125633 
L 196.147466 256.471863 
L 196.798076 255.418916 
L 197.448686 255.953831 
L 198.099297 255.26555 
L 198.749907 255.214654 
L 199.400517 254.577949 
L 200.051128 254.90088 
L 200.701738 254.849819 
L 201.352348 255.258509 
L 202.002959 254.545377 
L 202.653569 254.723682 
L 203.304179 255.249943 
L 203.95479 255.607058 
L 204.6054 256.191344 
L 205.25601 256.055705 
L 205.906621 252.989835 
L 206.557231 253.22633 
L 207.207841 253.182645 
L 207.858451 251.688006 
L 208.509062 251.688006 
L 209.159672 249.592038 
L 209.810282 249.626051 
L 210.460893 248.317947 
L 211.111503 247.825785 
L 211.762113 248.292839 
L 212.412724 248.166871 
L 213.063334 247.257877 
L 213.713944 247.223689 
L 214.364555 247.350676 
L 215.015165 247.343208 
L 215.665775 247.462052 
L 217.617606 249.60069 
L 218.268216 248.377918 
L 218.918827 248.649279 
L 219.569437 246.342259 
L 220.220047 246.495883 
L 220.870658 246.427852 
L 221.521268 246.734075 
L 222.171878 245.765781 
L 222.822489 246.912376 
L 223.473099 245.875633 
L 224.123709 246.054786 
L 224.77432 247.208675 
L 225.42493 247.090428 
L 226.07554 246.784544 
L 226.72615 246.708201 
L 227.376761 246.897026 
L 228.027371 247.720602 
L 229.328592 244.619356 
L 229.979202 244.186063 
L 230.629812 245.011085 
L 231.280423 244.255366 
L 231.931033 243.702981 
L 232.581643 243.856852 
L 233.232254 241.980413 
L 233.882864 242.328627 
L 234.533474 243.195718 
L 235.184085 243.357484 
L 235.834695 242.942175 
L 236.485305 243.094945 
L 237.135915 242.942345 
L 237.786526 243.248482 
L 238.437136 246.212054 
L 239.087746 246.204247 
L 239.738357 246.959879 
L 240.388967 248.471057 
L 241.039577 248.097316 
L 241.690188 249.539361 
L 242.340798 248.740719 
L 242.991408 250.17564 
L 243.642019 251.194996 
L 244.292629 251.365667 
L 244.943239 252.706343 
L 246.24446 253.980264 
L 246.89507 253.666829 
L 247.54568 254.100209 
L 248.846901 253.930809 
L 250.148122 252.504375 
L 250.798732 249.695693 
L 251.449342 249.746336 
L 252.099953 249.117856 
L 253.401173 245.432329 
L 254.051784 245.067154 
L 254.702394 246.027218 
L 255.353004 246.765715 
L 256.003615 247.326839 
L 256.654225 242.548069 
L 257.304835 242.183656 
L 257.955445 238.957296 
L 258.606056 238.685852 
L 259.256666 236.316402 
L 259.907276 235.542107 
L 260.557887 234.591039 
L 261.208497 237.324985 
L 261.859107 239.1859 
L 262.509718 239.899206 
L 263.160328 240.958515 
L 263.810938 240.77181 
L 264.461549 241.221985 
L 265.112159 241.263972 
L 265.762769 241.976172 
L 266.413379 240.142145 
L 267.06399 240.244194 
L 267.7146 239.546668 
L 268.36521 239.860438 
L 269.015821 239.630898 
L 269.666431 239.09692 
L 270.317041 237.66098 
L 270.967652 237.975516 
L 271.618262 237.43967 
L 272.268872 235.953683 
L 272.919483 235.614975 
L 273.570093 236.073881 
L 274.220703 236.064554 
L 274.871314 236.371113 
L 275.521924 236.082029 
L 276.823144 234.441234 
L 278.124365 233.203025 
L 278.774975 232.270024 
L 279.425586 233.169774 
L 280.076196 232.753276 
L 280.726806 231.140647 
L 281.377417 231.479529 
L 282.028027 229.408495 
L 282.678637 229.578148 
L 283.329248 232.930057 
L 283.979858 233.320937 
L 284.630468 236.579616 
L 285.281079 237.632649 
L 286.582299 237.555713 
L 287.232909 237.283843 
L 287.88352 236.153874 
L 288.53413 236.059716 
L 289.18474 240.065123 
L 289.835351 240.514532 
L 290.485961 243.196989 
L 291.136571 242.747498 
L 291.787182 245.2441 
L 292.437792 246.026621 
L 293.088402 246.510218 
L 293.739013 247.206385 
L 294.389623 246.781492 
L 295.690844 245.559908 
L 296.341454 246.569 
L 297.642674 246.423441 
L 298.293285 247.570967 
L 298.943895 249.277841 
L 299.594505 249.481677 
L 300.245116 249.81445 
L 301.546336 250.953158 
L 302.196947 251.912543 
L 302.847557 253.365444 
L 303.498167 254.23186 
L 304.148778 254.903088 
L 304.799388 256.27897 
L 305.449998 257.340652 
L 306.100608 257.518957 
L 307.401829 258.903661 
L 308.052439 259.499055 
L 308.70305 260.467515 
L 309.35366 261.682395 
L 310.00427 261.385079 
L 310.654881 262.420892 
L 311.305491 262.480356 
L 311.956101 262.039175 
L 312.606712 262.872422 
L 313.257322 263.925623 
L 313.907932 264.156012 
L 314.558543 267.305523 
L 315.209153 268.444567 
L 315.859763 268.920358 
L 316.510373 268.835107 
L 317.160984 268.479092 
L 317.811594 269.183404 
L 318.462204 271.332052 
L 319.763425 272.011593 
L 320.414035 272.920846 
L 321.064646 273.05716 
L 321.715256 273.643819 
L 322.365866 273.89957 
L 323.016477 274.885164 
L 323.667087 276.09046 
L 324.317697 275.512878 
L 324.968308 275.887302 
L 325.618918 275.650128 
L 326.920138 276.032099 
L 327.570749 276.711727 
L 328.221359 277.713695 
L 328.871969 277.494503 
L 329.52258 278.819572 
L 330.17319 279.526428 
L 330.8238 279.798297 
L 332.125021 280.095698 
L 332.775631 280.223021 
L 333.426242 280.095613 
L 334.727462 279.636534 
L 336.028683 279.585298 
L 336.679293 279.797957 
L 337.329903 279.756562 
L 338.631124 279.332431 
L 339.932345 279.408606 
L 340.582955 279.076935 
L 341.233565 279.45967 
L 341.884176 279.570114 
L 342.534786 280.325577 
L 343.185396 280.368413 
L 343.836007 281.633002 
L 344.486617 281.930064 
L 345.137227 281.938292 
L 345.787837 282.710803 
L 346.438448 282.183948 
L 349.040889 282.311357 
L 349.691499 282.940173 
L 350.34211 283.025254 
L 350.99272 283.229685 
L 351.64333 283.926448 
L 352.293941 283.926448 
L 352.944551 284.486809 
L 353.595161 284.860977 
L 355.546992 284.852579 
L 356.197602 285.107397 
L 356.848213 285.906121 
L 357.498823 286.135067 
L 358.149433 287.230087 
L 358.800044 286.950246 
L 359.450654 287.7488 
L 360.751875 287.783069 
L 361.402485 288.82728 
L 363.354316 288.895141 
L 364.655537 288.996762 
L 365.306147 289.336406 
L 365.956757 289.49783 
L 366.607367 289.914072 
L 367.257978 290.160916 
L 369.209809 290.186788 
L 369.860419 290.653417 
L 371.16164 290.983985 
L 372.46286 290.670213 
L 373.113471 291.001883 
L 373.764081 290.866161 
L 374.414691 290.900092 
L 375.065302 291.273666 
L 376.366522 291.256701 
L 377.017132 291.45969 
L 377.667743 291.306409 
L 378.318353 291.382753 
L 378.968963 291.909608 
L 379.619574 291.88416 
L 380.270184 292.053982 
L 380.920794 291.986206 
L 381.571405 292.360204 
L 382.872625 292.317537 
L 383.523236 292.614768 
L 385.475066 292.385398 
L 386.125677 292.470309 
L 386.776287 292.716305 
L 390.029339 292.436294 
L 390.679949 292.156113 
L 391.330559 292.402024 
L 391.98117 292.435191 
L 393.933001 292.230675 
L 394.583611 292.247471 
L 396.535442 292.009194 
L 397.836662 291.915885 
L 398.487273 291.88187 
L 398.487273 291.88187 
" clip-path="url(#p1c2344d4b3)" style="fill: none; stroke: #ff7f0e; stroke-width: 1.5; stroke-linecap: square"/>
   </g>
   <g id="patch_3">
    <path d="M 57.6 307.584 
L 57.6 41.472 
" style="fill: none; stroke: #000000; stroke-width: 0.8; stroke-linejoin: miter; stroke-linecap: square"/>
   </g>
   <g id="patch_4">
    <path d="M 414.72 307.584 
L 414.72 41.472 
" style="fill: none; stroke: #000000; stroke-width: 0.8; stroke-linejoin: miter; stroke-linecap: square"/>
   </g>
   <g id="patch_5">
    <path d="M 57.6 307.584 
L 414.72 307.584 
" style="fill: none; stroke: #000000; stroke-width: 0.8; stroke-linejoin: miter; stroke-linecap: square"/>
   </g>
   <g id="patch_6">
    <path d="M 57.6 41.472 
L 414.72 41.472 
" style="fill: none; stroke: #000000; stroke-width: 0.8; stroke-linejoin: miter; stroke-linecap: square"/>
   </g>
   <g id="text_15">
    <!-- Epoch Reward -->
    <g transform="translate(193.534687 35.472) scale(0.12 -0.12)">
     <defs>
      <path id="DejaVuSans-20" transform="scale(0.015625)"/>
     </defs>
     <use xlink:href="#DejaVuSans-45"/>
     <use xlink:href="#DejaVuSans-70" x="63.183594"/>
     <use xlink:href="#DejaVuSans-6f" x="126.660156"/>
     <use xlink:href="#DejaVuSans-63" x="187.841797"/>
     <use xlink:href="#DejaVuSans-68" x="242.822266"/>
     <use xlink:href="#DejaVuSans-20" x="306.201172"/>
     <use xlink:href="#DejaVuSans-52" x="337.988281"/>
     <use xlink:href="#DejaVuSans-65" x="402.970703"/>
     <use xlink:href="#DejaVuSans-77" x="464.494141"/>
     <use xlink:href="#DejaVuSans-61" x="546.28125"/>
     <use xlink:href="#DejaVuSans-72" x="607.560547"/>
     <use xlink:href="#DejaVuSans-64" x="646.923828"/>
    </g>
   </g>
   <g id="legend_1">
    <g id="patch_7">
     <path d="M 295.346563 78.82825 
L 407.72 78.82825 
Q 409.72 78.82825 409.72 76.82825 
L 409.72 48.472 
Q 409.72 46.472 407.72 46.472 
L 295.346563 46.472 
Q 293.346563 46.472 293.346563 48.472 
L 293.346563 76.82825 
Q 293.346563 78.82825 295.346563 78.82825 
z
" style="fill: #ffffff; opacity: 0.8; stroke: #cccccc; stroke-linejoin: miter"/>
    </g>
    <g id="line2d_15">
     <path d="M 297.346563 54.570437 
L 307.346563 54.570437 
L 317.346563 54.570437 
" style="fill: none; stroke: #1f77b4; stroke-width: 1.5; stroke-linecap: square"/>
    </g>
    <g id="text_16">
     <!-- Reward -->
     <g transform="translate(325.346563 58.070437) scale(0.1 -0.1)">
      <use xlink:href="#DejaVuSans-52"/>
      <use xlink:href="#DejaVuSans-65" x="64.982422"/>
      <use xlink:href="#DejaVuSans-77" x="126.505859"/>
      <use xlink:href="#DejaVuSans-61" x="208.292969"/>
      <use xlink:href="#DejaVuSans-72" x="269.572266"/>
      <use xlink:href="#DejaVuSans-64" x="308.935547"/>
     </g>
    </g>
    <g id="line2d_16">
     <path d="M 297.346563 69.248562 
L 307.346563 69.248562 
L 317.346563 69.248562 
" style="fill: none; stroke: #ff7f0e; stroke-width: 1.5; stroke-linecap: square"/>
    </g>
    <g id="text_17">
     <!-- Moving Average -->
     <g transform="translate(325.346563 72.748562) scale(0.1 -0.1)">
      <defs>
       <path id="DejaVuSans-4d" d="M 628 4666 
L 1569 4666 
L 2759 1491 
L 3956 4666 
L 4897 4666 
L 4897 0 
L 4281 0 
L 4281 4097 
L 3078 897 
L 2444 897 
L 1241 4097 
L 1241 0 
L 628 0 
L 628 4666 
z
" transform="scale(0.015625)"/>
       <path id="DejaVuSans-76" d="M 191 3500 
L 800 3500 
L 1894 563 
L 2988 3500 
L 3597 3500 
L 2284 0 
L 1503 0 
L 191 3500 
z
" transform="scale(0.015625)"/>
       <path id="DejaVuSans-69" d="M 603 3500 
L 1178 3500 
L 1178 0 
L 603 0 
L 603 3500 
z
M 603 4863 
L 1178 4863 
L 1178 4134 
L 603 4134 
L 603 4863 
z
" transform="scale(0.015625)"/>
       <path id="DejaVuSans-6e" d="M 3513 2113 
L 3513 0 
L 2938 0 
L 2938 2094 
Q 2938 2591 2744 2837 
Q 2550 3084 2163 3084 
Q 1697 3084 1428 2787 
Q 1159 2491 1159 1978 
L 1159 0 
L 581 0 
L 581 3500 
L 1159 3500 
L 1159 2956 
Q 1366 3272 1645 3428 
Q 1925 3584 2291 3584 
Q 2894 3584 3203 3211 
Q 3513 2838 3513 2113 
z
" transform="scale(0.015625)"/>
       <path id="DejaVuSans-67" d="M 2906 1791 
Q 2906 2416 2648 2759 
Q 2391 3103 1925 3103 
Q 1463 3103 1205 2759 
Q 947 2416 947 1791 
Q 947 1169 1205 825 
Q 1463 481 1925 481 
Q 2391 481 2648 825 
Q 2906 1169 2906 1791 
z
M 3481 434 
Q 3481 -459 3084 -895 
Q 2688 -1331 1869 -1331 
Q 1566 -1331 1297 -1286 
Q 1028 -1241 775 -1147 
L 775 -588 
Q 1028 -725 1275 -790 
Q 1522 -856 1778 -856 
Q 2344 -856 2625 -561 
Q 2906 -266 2906 331 
L 2906 616 
Q 2728 306 2450 153 
Q 2172 0 1784 0 
Q 1141 0 747 490 
Q 353 981 353 1791 
Q 353 2603 747 3093 
Q 1141 3584 1784 3584 
Q 2172 3584 2450 3431 
Q 2728 3278 2906 2969 
L 2906 3500 
L 3481 3500 
L 3481 434 
z
" transform="scale(0.015625)"/>
       <path id="DejaVuSans-41" d="M 2188 4044 
L 1331 1722 
L 3047 1722 
L 2188 4044 
z
M 1831 4666 
L 2547 4666 
L 4325 0 
L 3669 0 
L 3244 1197 
L 1141 1197 
L 716 0 
L 50 0 
L 1831 4666 
z
" transform="scale(0.015625)"/>
      </defs>
      <use xlink:href="#DejaVuSans-4d"/>
      <use xlink:href="#DejaVuSans-6f" x="86.279297"/>
      <use xlink:href="#DejaVuSans-76" x="147.460938"/>
      <use xlink:href="#DejaVuSans-69" x="206.640625"/>
      <use xlink:href="#DejaVuSans-6e" x="234.423828"/>
      <use xlink:href="#DejaVuSans-67" x="297.802734"/>
      <use xlink:href="#DejaVuSans-20" x="361.279297"/>
      <use xlink:href="#DejaVuSans-41" x="393.066406"/>
      <use xlink:href="#DejaVuSans-76" x="455.599609"/>
      <use xlink:href="#DejaVuSans-65" x="514.779297"/>
      <use xlink:href="#DejaVuSans-72" x="576.302734"/>
      <use xlink:href="#DejaVuSans-61" x="617.416016"/>
      <use xlink:href="#DejaVuSans-67" x="678.695312"/>
      <use xlink:href="#DejaVuSans-65" x="742.171875"/>
     </g>
    </g>
   </g>
  </g>
 </g>
 <defs>
  <clipPath id="p1c2344d4b3">
   <rect x="57.6" y="41.472" width="357.12" height="266.112"/>
  </clipPath>
 </defs>
</svg>
