<?xml version="1.0" encoding="utf-8" standalone="no"?>
<!DOCTYPE svg PUBLIC "-//W3C//DTD SVG 1.1//EN"
  "http://www.w3.org/Graphics/SVG/1.1/DTD/svg11.dtd">
<svg xmlns:xlink="http://www.w3.org/1999/xlink" width="460.8pt" height="345.6pt" viewBox="0 0 460.8 345.6" xmlns="http://www.w3.org/2000/svg" version="1.1">
 <metadata>
  <rdf:RDF xmlns:dc="http://purl.org/dc/elements/1.1/" xmlns:cc="http://creativecommons.org/ns#" xmlns:rdf="http://www.w3.org/1999/02/22-rdf-syntax-ns#">
   <cc:Work>
    <dc:type rdf:resource="http://purl.org/dc/dcmitype/StillImage"/>
    <dc:date>2024-07-09T09:29:31.586454</dc:date>
    <dc:format>image/svg+xml</dc:format>
    <dc:creator>
     <cc:Agent>
      <dc:title>Matplotlib v3.7.1, https://matplotlib.org/</dc:title>
     </cc:Agent>
    </dc:creator>
   </cc:Work>
  </rdf:RDF>
 </metadata>
 <defs>
  <style type="text/css">*{stroke-linejoin: round; stroke-linecap: butt}</style>
 </defs>
 <g id="figure_1">
  <g id="patch_1">
   <path d="M 0 345.6 
L 460.8 345.6 
L 460.8 0 
L 0 0 
z
" style="fill: #ffffff"/>
  </g>
  <g id="axes_1">
   <g id="patch_2">
    <path d="M 57.6 307.584 
L 414.72 307.584 
L 414.72 41.472 
L 57.6 41.472 
z
" style="fill: #ffffff"/>
   </g>
   <g id="matplotlib.axis_1">
    <g id="xtick_1">
     <g id="line2d_1">
      <defs>
       <path id="mf4b8b86cd7" d="M 0 0 
L 0 3.5 
" style="stroke: #000000; stroke-width: 0.8"/>
      </defs>
      <g>
       <use xlink:href="#mf4b8b86cd7" x="73.182117" y="307.584" style="stroke: #000000; stroke-width: 0.8"/>
      </g>
     </g>
     <g id="text_1">
      <!-- 0 -->
      <g transform="translate(70.000867 322.182437) scale(0.1 -0.1)">
       <defs>
        <path id="DejaVuSans-30" d="M 2034 4250 
Q 1547 4250 1301 3770 
Q 1056 3291 1056 2328 
Q 1056 1369 1301 889 
Q 1547 409 2034 409 
Q 2525 409 2770 889 
Q 3016 1369 3016 2328 
Q 3016 3291 2770 3770 
Q 2525 4250 2034 4250 
z
M 2034 4750 
Q 2819 4750 3233 4129 
Q 3647 3509 3647 2328 
Q 3647 1150 3233 529 
Q 2819 -91 2034 -91 
Q 1250 -91 836 529 
Q 422 1150 422 2328 
Q 422 3509 836 4129 
Q 1250 4750 2034 4750 
z
" transform="scale(0.015625)"/>
       </defs>
       <use xlink:href="#DejaVuSans-30"/>
      </g>
     </g>
    </g>
    <g id="xtick_2">
     <g id="line2d_2">
      <g>
       <use xlink:href="#mf4b8b86cd7" x="138.243148" y="307.584" style="stroke: #000000; stroke-width: 0.8"/>
      </g>
     </g>
     <g id="text_2">
      <!-- 100 -->
      <g transform="translate(128.699398 322.182437) scale(0.1 -0.1)">
       <defs>
        <path id="DejaVuSans-31" d="M 794 531 
L 1825 531 
L 1825 4091 
L 703 3866 
L 703 4441 
L 1819 4666 
L 2450 4666 
L 2450 531 
L 3481 531 
L 3481 0 
L 794 0 
L 794 531 
z
" transform="scale(0.015625)"/>
       </defs>
       <use xlink:href="#DejaVuSans-31"/>
       <use xlink:href="#DejaVuSans-30" x="63.623047"/>
       <use xlink:href="#DejaVuSans-30" x="127.246094"/>
      </g>
     </g>
    </g>
    <g id="xtick_3">
     <g id="line2d_3">
      <g>
       <use xlink:href="#mf4b8b86cd7" x="203.304179" y="307.584" style="stroke: #000000; stroke-width: 0.8"/>
      </g>
     </g>
     <g id="text_3">
      <!-- 200 -->
      <g transform="translate(193.760429 322.182437) scale(0.1 -0.1)">
       <defs>
        <path id="DejaVuSans-32" d="M 1228 531 
L 3431 531 
L 3431 0 
L 469 0 
L 469 531 
Q 828 903 1448 1529 
Q 2069 2156 2228 2338 
Q 2531 2678 2651 2914 
Q 2772 3150 2772 3378 
Q 2772 3750 2511 3984 
Q 2250 4219 1831 4219 
Q 1534 4219 1204 4116 
Q 875 4013 500 3803 
L 500 4441 
Q 881 4594 1212 4672 
Q 1544 4750 1819 4750 
Q 2544 4750 2975 4387 
Q 3406 4025 3406 3419 
Q 3406 3131 3298 2873 
Q 3191 2616 2906 2266 
Q 2828 2175 2409 1742 
Q 1991 1309 1228 531 
z
" transform="scale(0.015625)"/>
       </defs>
       <use xlink:href="#DejaVuSans-32"/>
       <use xlink:href="#DejaVuSans-30" x="63.623047"/>
       <use xlink:href="#DejaVuSans-30" x="127.246094"/>
      </g>
     </g>
    </g>
    <g id="xtick_4">
     <g id="line2d_4">
      <g>
       <use xlink:href="#mf4b8b86cd7" x="268.36521" y="307.584" style="stroke: #000000; stroke-width: 0.8"/>
      </g>
     </g>
     <g id="text_4">
      <!-- 300 -->
      <g transform="translate(258.82146 322.182437) scale(0.1 -0.1)">
       <defs>
        <path id="DejaVuSans-33" d="M 2597 2516 
Q 3050 2419 3304 2112 
Q 3559 1806 3559 1356 
Q 3559 666 3084 287 
Q 2609 -91 1734 -91 
Q 1441 -91 1130 -33 
Q 819 25 488 141 
L 488 750 
Q 750 597 1062 519 
Q 1375 441 1716 441 
Q 2309 441 2620 675 
Q 2931 909 2931 1356 
Q 2931 1769 2642 2001 
Q 2353 2234 1838 2234 
L 1294 2234 
L 1294 2753 
L 1863 2753 
Q 2328 2753 2575 2939 
Q 2822 3125 2822 3475 
Q 2822 3834 2567 4026 
Q 2313 4219 1838 4219 
Q 1578 4219 1281 4162 
Q 984 4106 628 3988 
L 628 4550 
Q 988 4650 1302 4700 
Q 1616 4750 1894 4750 
Q 2613 4750 3031 4423 
Q 3450 4097 3450 3541 
Q 3450 3153 3228 2886 
Q 3006 2619 2597 2516 
z
" transform="scale(0.015625)"/>
       </defs>
       <use xlink:href="#DejaVuSans-33"/>
       <use xlink:href="#DejaVuSans-30" x="63.623047"/>
       <use xlink:href="#DejaVuSans-30" x="127.246094"/>
      </g>
     </g>
    </g>
    <g id="xtick_5">
     <g id="line2d_5">
      <g>
       <use xlink:href="#mf4b8b86cd7" x="333.426242" y="307.584" style="stroke: #000000; stroke-width: 0.8"/>
      </g>
     </g>
     <g id="text_5">
      <!-- 400 -->
      <g transform="translate(323.882492 322.182437) scale(0.1 -0.1)">
       <defs>
        <path id="DejaVuSans-34" d="M 2419 4116 
L 825 1625 
L 2419 1625 
L 2419 4116 
z
M 2253 4666 
L 3047 4666 
L 3047 1625 
L 3713 1625 
L 3713 1100 
L 3047 1100 
L 3047 0 
L 2419 0 
L 2419 1100 
L 313 1100 
L 313 1709 
L 2253 4666 
z
" transform="scale(0.015625)"/>
       </defs>
       <use xlink:href="#DejaVuSans-34"/>
       <use xlink:href="#DejaVuSans-30" x="63.623047"/>
       <use xlink:href="#DejaVuSans-30" x="127.246094"/>
      </g>
     </g>
    </g>
    <g id="xtick_6">
     <g id="line2d_6">
      <g>
       <use xlink:href="#mf4b8b86cd7" x="398.487273" y="307.584" style="stroke: #000000; stroke-width: 0.8"/>
      </g>
     </g>
     <g id="text_6">
      <!-- 500 -->
      <g transform="translate(388.943523 322.182437) scale(0.1 -0.1)">
       <defs>
        <path id="DejaVuSans-35" d="M 691 4666 
L 3169 4666 
L 3169 4134 
L 1269 4134 
L 1269 2991 
Q 1406 3038 1543 3061 
Q 1681 3084 1819 3084 
Q 2600 3084 3056 2656 
Q 3513 2228 3513 1497 
Q 3513 744 3044 326 
Q 2575 -91 1722 -91 
Q 1428 -91 1123 -41 
Q 819 9 494 109 
L 494 744 
Q 775 591 1075 516 
Q 1375 441 1709 441 
Q 2250 441 2565 725 
Q 2881 1009 2881 1497 
Q 2881 1984 2565 2268 
Q 2250 2553 1709 2553 
Q 1456 2553 1204 2497 
Q 953 2441 691 2322 
L 691 4666 
z
" transform="scale(0.015625)"/>
       </defs>
       <use xlink:href="#DejaVuSans-35"/>
       <use xlink:href="#DejaVuSans-30" x="63.623047"/>
       <use xlink:href="#DejaVuSans-30" x="127.246094"/>
      </g>
     </g>
    </g>
    <g id="text_7">
     <!-- Epoch -->
     <g transform="translate(220.849063 335.860562) scale(0.1 -0.1)">
      <defs>
       <path id="DejaVuSans-45" d="M 628 4666 
L 3578 4666 
L 3578 4134 
L 1259 4134 
L 1259 2753 
L 3481 2753 
L 3481 2222 
L 1259 2222 
L 1259 531 
L 3634 531 
L 3634 0 
L 628 0 
L 628 4666 
z
" transform="scale(0.015625)"/>
       <path id="DejaVuSans-70" d="M 1159 525 
L 1159 -1331 
L 581 -1331 
L 581 3500 
L 1159 3500 
L 1159 2969 
Q 1341 3281 1617 3432 
Q 1894 3584 2278 3584 
Q 2916 3584 3314 3078 
Q 3713 2572 3713 1747 
Q 3713 922 3314 415 
Q 2916 -91 2278 -91 
Q 1894 -91 1617 61 
Q 1341 213 1159 525 
z
M 3116 1747 
Q 3116 2381 2855 2742 
Q 2594 3103 2138 3103 
Q 1681 3103 1420 2742 
Q 1159 2381 1159 1747 
Q 1159 1113 1420 752 
Q 1681 391 2138 391 
Q 2594 391 2855 752 
Q 3116 1113 3116 1747 
z
" transform="scale(0.015625)"/>
       <path id="DejaVuSans-6f" d="M 1959 3097 
Q 1497 3097 1228 2736 
Q 959 2375 959 1747 
Q 959 1119 1226 758 
Q 1494 397 1959 397 
Q 2419 397 2687 759 
Q 2956 1122 2956 1747 
Q 2956 2369 2687 2733 
Q 2419 3097 1959 3097 
z
M 1959 3584 
Q 2709 3584 3137 3096 
Q 3566 2609 3566 1747 
Q 3566 888 3137 398 
Q 2709 -91 1959 -91 
Q 1206 -91 779 398 
Q 353 888 353 1747 
Q 353 2609 779 3096 
Q 1206 3584 1959 3584 
z
" transform="scale(0.015625)"/>
       <path id="DejaVuSans-63" d="M 3122 3366 
L 3122 2828 
Q 2878 2963 2633 3030 
Q 2388 3097 2138 3097 
Q 1578 3097 1268 2742 
Q 959 2388 959 1747 
Q 959 1106 1268 751 
Q 1578 397 2138 397 
Q 2388 397 2633 464 
Q 2878 531 3122 666 
L 3122 134 
Q 2881 22 2623 -34 
Q 2366 -91 2075 -91 
Q 1284 -91 818 406 
Q 353 903 353 1747 
Q 353 2603 823 3093 
Q 1294 3584 2113 3584 
Q 2378 3584 2631 3529 
Q 2884 3475 3122 3366 
z
" transform="scale(0.015625)"/>
       <path id="DejaVuSans-68" d="M 3513 2113 
L 3513 0 
L 2938 0 
L 2938 2094 
Q 2938 2591 2744 2837 
Q 2550 3084 2163 3084 
Q 1697 3084 1428 2787 
Q 1159 2491 1159 1978 
L 1159 0 
L 581 0 
L 581 4863 
L 1159 4863 
L 1159 2956 
Q 1366 3272 1645 3428 
Q 1925 3584 2291 3584 
Q 2894 3584 3203 3211 
Q 3513 2838 3513 2113 
z
" transform="scale(0.015625)"/>
      </defs>
      <use xlink:href="#DejaVuSans-45"/>
      <use xlink:href="#DejaVuSans-70" x="63.183594"/>
      <use xlink:href="#DejaVuSans-6f" x="126.660156"/>
      <use xlink:href="#DejaVuSans-63" x="187.841797"/>
      <use xlink:href="#DejaVuSans-68" x="242.822266"/>
     </g>
    </g>
   </g>
   <g id="matplotlib.axis_2">
    <g id="ytick_1">
     <g id="line2d_7">
      <defs>
       <path id="m47314c04b4" d="M 0 0 
L -3.5 0 
" style="stroke: #000000; stroke-width: 0.8"/>
      </defs>
      <g>
       <use xlink:href="#m47314c04b4" x="57.6" y="295.488" style="stroke: #000000; stroke-width: 0.8"/>
      </g>
     </g>
     <g id="text_8">
      <!-- 0 -->
      <g transform="translate(44.2375 299.287219) scale(0.1 -0.1)">
       <use xlink:href="#DejaVuSans-30"/>
      </g>
     </g>
    </g>
    <g id="ytick_2">
     <g id="line2d_8">
      <g>
       <use xlink:href="#m47314c04b4" x="57.6" y="250.688" style="stroke: #000000; stroke-width: 0.8"/>
      </g>
     </g>
     <g id="text_9">
      <!-- 5000 -->
      <g transform="translate(25.15 254.487219) scale(0.1 -0.1)">
       <use xlink:href="#DejaVuSans-35"/>
       <use xlink:href="#DejaVuSans-30" x="63.623047"/>
       <use xlink:href="#DejaVuSans-30" x="127.246094"/>
       <use xlink:href="#DejaVuSans-30" x="190.869141"/>
      </g>
     </g>
    </g>
    <g id="ytick_3">
     <g id="line2d_9">
      <g>
       <use xlink:href="#m47314c04b4" x="57.6" y="205.888" style="stroke: #000000; stroke-width: 0.8"/>
      </g>
     </g>
     <g id="text_10">
      <!-- 10000 -->
      <g transform="translate(18.7875 209.687219) scale(0.1 -0.1)">
       <use xlink:href="#DejaVuSans-31"/>
       <use xlink:href="#DejaVuSans-30" x="63.623047"/>
       <use xlink:href="#DejaVuSans-30" x="127.246094"/>
       <use xlink:href="#DejaVuSans-30" x="190.869141"/>
       <use xlink:href="#DejaVuSans-30" x="254.492188"/>
      </g>
     </g>
    </g>
    <g id="ytick_4">
     <g id="line2d_10">
      <g>
       <use xlink:href="#m47314c04b4" x="57.6" y="161.088" style="stroke: #000000; stroke-width: 0.8"/>
      </g>
     </g>
     <g id="text_11">
      <!-- 15000 -->
      <g transform="translate(18.7875 164.887219) scale(0.1 -0.1)">
       <use xlink:href="#DejaVuSans-31"/>
       <use xlink:href="#DejaVuSans-35" x="63.623047"/>
       <use xlink:href="#DejaVuSans-30" x="127.246094"/>
       <use xlink:href="#DejaVuSans-30" x="190.869141"/>
       <use xlink:href="#DejaVuSans-30" x="254.492188"/>
      </g>
     </g>
    </g>
    <g id="ytick_5">
     <g id="line2d_11">
      <g>
       <use xlink:href="#m47314c04b4" x="57.6" y="116.288" style="stroke: #000000; stroke-width: 0.8"/>
      </g>
     </g>
     <g id="text_12">
      <!-- 20000 -->
      <g transform="translate(18.7875 120.087219) scale(0.1 -0.1)">
       <use xlink:href="#DejaVuSans-32"/>
       <use xlink:href="#DejaVuSans-30" x="63.623047"/>
       <use xlink:href="#DejaVuSans-30" x="127.246094"/>
       <use xlink:href="#DejaVuSans-30" x="190.869141"/>
       <use xlink:href="#DejaVuSans-30" x="254.492188"/>
      </g>
     </g>
    </g>
    <g id="ytick_6">
     <g id="line2d_12">
      <g>
       <use xlink:href="#m47314c04b4" x="57.6" y="71.488" style="stroke: #000000; stroke-width: 0.8"/>
      </g>
     </g>
     <g id="text_13">
      <!-- 25000 -->
      <g transform="translate(18.7875 75.287219) scale(0.1 -0.1)">
       <use xlink:href="#DejaVuSans-32"/>
       <use xlink:href="#DejaVuSans-35" x="63.623047"/>
       <use xlink:href="#DejaVuSans-30" x="127.246094"/>
       <use xlink:href="#DejaVuSans-30" x="190.869141"/>
       <use xlink:href="#DejaVuSans-30" x="254.492188"/>
      </g>
     </g>
    </g>
    <g id="text_14">
     <!-- Duration -->
     <g transform="translate(12.707812 196.243625) rotate(-90) scale(0.1 -0.1)">
      <defs>
       <path id="DejaVuSans-44" d="M 1259 4147 
L 1259 519 
L 2022 519 
Q 2988 519 3436 956 
Q 3884 1394 3884 2338 
Q 3884 3275 3436 3711 
Q 2988 4147 2022 4147 
L 1259 4147 
z
M 628 4666 
L 1925 4666 
Q 3281 4666 3915 4102 
Q 4550 3538 4550 2338 
Q 4550 1131 3912 565 
Q 3275 0 1925 0 
L 628 0 
L 628 4666 
z
" transform="scale(0.015625)"/>
       <path id="DejaVuSans-75" d="M 544 1381 
L 544 3500 
L 1119 3500 
L 1119 1403 
Q 1119 906 1312 657 
Q 1506 409 1894 409 
Q 2359 409 2629 706 
Q 2900 1003 2900 1516 
L 2900 3500 
L 3475 3500 
L 3475 0 
L 2900 0 
L 2900 538 
Q 2691 219 2414 64 
Q 2138 -91 1772 -91 
Q 1169 -91 856 284 
Q 544 659 544 1381 
z
M 1991 3584 
L 1991 3584 
z
" transform="scale(0.015625)"/>
       <path id="DejaVuSans-72" d="M 2631 2963 
Q 2534 3019 2420 3045 
Q 2306 3072 2169 3072 
Q 1681 3072 1420 2755 
Q 1159 2438 1159 1844 
L 1159 0 
L 581 0 
L 581 3500 
L 1159 3500 
L 1159 2956 
Q 1341 3275 1631 3429 
Q 1922 3584 2338 3584 
Q 2397 3584 2469 3576 
Q 2541 3569 2628 3553 
L 2631 2963 
z
" transform="scale(0.015625)"/>
       <path id="DejaVuSans-61" d="M 2194 1759 
Q 1497 1759 1228 1600 
Q 959 1441 959 1056 
Q 959 750 1161 570 
Q 1363 391 1709 391 
Q 2188 391 2477 730 
Q 2766 1069 2766 1631 
L 2766 1759 
L 2194 1759 
z
M 3341 1997 
L 3341 0 
L 2766 0 
L 2766 531 
Q 2569 213 2275 61 
Q 1981 -91 1556 -91 
Q 1019 -91 701 211 
Q 384 513 384 1019 
Q 384 1609 779 1909 
Q 1175 2209 1959 2209 
L 2766 2209 
L 2766 2266 
Q 2766 2663 2505 2880 
Q 2244 3097 1772 3097 
Q 1472 3097 1187 3025 
Q 903 2953 641 2809 
L 641 3341 
Q 956 3463 1253 3523 
Q 1550 3584 1831 3584 
Q 2591 3584 2966 3190 
Q 3341 2797 3341 1997 
z
" transform="scale(0.015625)"/>
       <path id="DejaVuSans-74" d="M 1172 4494 
L 1172 3500 
L 2356 3500 
L 2356 3053 
L 1172 3053 
L 1172 1153 
Q 1172 725 1289 603 
Q 1406 481 1766 481 
L 2356 481 
L 2356 0 
L 1766 0 
Q 1100 0 847 248 
Q 594 497 594 1153 
L 594 3053 
L 172 3053 
L 172 3500 
L 594 3500 
L 594 4494 
L 1172 4494 
z
" transform="scale(0.015625)"/>
       <path id="DejaVuSans-69" d="M 603 3500 
L 1178 3500 
L 1178 0 
L 603 0 
L 603 3500 
z
M 603 4863 
L 1178 4863 
L 1178 4134 
L 603 4134 
L 603 4863 
z
" transform="scale(0.015625)"/>
       <path id="DejaVuSans-6e" d="M 3513 2113 
L 3513 0 
L 2938 0 
L 2938 2094 
Q 2938 2591 2744 2837 
Q 2550 3084 2163 3084 
Q 1697 3084 1428 2787 
Q 1159 2491 1159 1978 
L 1159 0 
L 581 0 
L 581 3500 
L 1159 3500 
L 1159 2956 
Q 1366 3272 1645 3428 
Q 1925 3584 2291 3584 
Q 2894 3584 3203 3211 
Q 3513 2838 3513 2113 
z
" transform="scale(0.015625)"/>
      </defs>
      <use xlink:href="#DejaVuSans-44"/>
      <use xlink:href="#DejaVuSans-75" x="77.001953"/>
      <use xlink:href="#DejaVuSans-72" x="140.380859"/>
      <use xlink:href="#DejaVuSans-61" x="181.494141"/>
      <use xlink:href="#DejaVuSans-74" x="242.773438"/>
      <use xlink:href="#DejaVuSans-69" x="281.982422"/>
      <use xlink:href="#DejaVuSans-6f" x="309.765625"/>
      <use xlink:href="#DejaVuSans-6e" x="370.947266"/>
     </g>
    </g>
   </g>
   <g id="line2d_13">
    <path d="M 73.832727 272.75648 
L 75.133948 284.9152 
L 75.784558 279.41376 
L 76.435169 287.04768 
L 77.085779 283.46368 
L 77.736389 287.10144 
L 78.386999 286.27712 
L 79.03761 276.45696 
L 79.68822 272.47872 
L 80.33883 283.3024 
L 80.989441 265.66016 
L 81.640051 265.80352 
L 82.290661 53.568 
L 82.941272 280.63232 
L 83.591882 276.27776 
L 84.242492 275.83872 
L 84.893103 274.09152 
L 85.543713 278.25792 
L 86.194323 281.0176 
L 86.844934 282.34368 
L 87.495544 273.87648 
L 88.146154 283.1232 
L 88.796764 287.424 
L 89.447375 282.92608 
L 90.748595 254.66624 
L 91.399206 274.40512 
L 92.049816 269.78176 
L 92.700426 261.72672 
L 93.351037 274.8352 
L 94.001647 53.568 
L 94.652257 275.94624 
L 95.302868 261.07264 
L 95.953478 289.04576 
L 96.604088 282.1824 
L 97.254698 279.87072 
L 97.905309 282.07488 
L 98.555919 275.76704 
L 99.206529 272.07552 
L 99.85714 283.00672 
L 100.50775 275.48928 
L 101.15836 279.68256 
L 101.808971 271.2512 
L 102.459581 283.9296 
L 103.110191 272.26368 
L 103.760802 275.98208 
L 104.411412 276.50176 
L 105.062022 267.64928 
L 105.712633 267.14752 
L 106.363243 248.77952 
L 107.013853 286.7072 
L 107.664463 279.29728 
L 108.315074 264.352 
L 108.965684 272.17408 
L 109.616294 263.46496 
L 110.266905 282.11072 
L 110.917515 261.16224 
L 111.568125 286.64448 
L 112.218736 285.47072 
L 112.869346 245.96608 
L 113.519956 277.86368 
L 114.170567 288.14976 
L 114.821177 274.5664 
L 115.471787 282.46016 
L 116.122398 265.91104 
L 116.773008 274.36032 
L 117.423618 263.98464 
L 118.074228 279.77216 
L 118.724839 283.47264 
L 119.375449 277.55008 
L 120.026059 266.6368 
L 120.67667 271.3408 
L 121.32728 285.56928 
L 121.97789 276.94976 
L 122.628501 284.6464 
L 123.279111 274.53952 
L 123.929721 276.37632 
L 124.580332 280.78464 
L 125.230942 287.57632 
L 125.881552 283.45472 
L 126.532163 288.46336 
L 127.182773 286.08896 
L 128.483993 266.22464 
L 129.134604 281.47456 
L 129.785214 280.96384 
L 130.435824 273.38368 
L 131.086435 286.91328 
L 131.737045 278.11456 
L 132.387655 282.33472 
L 133.038266 271.1616 
L 133.688876 280.48896 
L 134.339486 281.04448 
L 134.990097 281.36704 
L 135.640707 273.50016 
L 136.291317 285.3632 
L 136.941927 283.22176 
L 137.592538 279.91552 
L 138.243148 286.76992 
L 138.893758 280.23808 
L 139.544369 283.616 
L 140.194979 291.26784 
L 140.845589 279.16288 
L 141.4962 292.00256 
L 142.14681 287.98848 
L 142.79742 287.7376 
L 143.448031 271.34976 
L 144.098641 268.50048 
L 145.399862 286.77888 
L 146.050472 286.99392 
L 146.701082 282.8544 
L 147.351692 281.16096 
L 148.002303 273.50016 
L 148.652913 283.63392 
L 149.303523 282.99776 
L 149.954134 286.72512 
L 150.604744 275.5072 
L 151.255354 278.31168 
L 151.905965 285.79328 
L 152.556575 274.36928 
L 153.207185 277.55008 
L 153.857796 278.41024 
L 154.508406 274.45888 
L 155.159016 283.74144 
L 155.809627 288.32896 
L 156.460237 282.61248 
L 157.110847 265.75872 
L 157.761457 275.4624 
L 158.412068 275.66848 
L 159.062678 280.24704 
L 159.713288 278.23104 
L 161.014509 282.73792 
L 161.665119 269.00224 
L 162.31573 279.91552 
L 162.96634 275.38176 
L 163.61695 285.75744 
L 164.267561 290.14784 
L 164.918171 282.08384 
L 165.568781 266.9952 
L 166.219392 279.11808 
L 166.870002 277.06624 
L 167.520612 272.8192 
L 168.171222 286.13376 
L 168.821833 272.83712 
L 169.472443 279.63776 
L 170.123053 279.60192 
L 170.773664 272.98944 
L 171.424274 276.28672 
L 172.074884 274.77248 
L 172.725495 281.12512 
L 173.376105 279.21664 
L 174.026715 286.51008 
L 174.677326 280.58752 
L 175.327936 277.39776 
L 175.978546 285.14816 
L 176.629156 290.64064 
L 177.279767 289.34144 
L 177.930377 281.40288 
L 178.580987 279.54816 
L 179.231598 276.87808 
L 179.882208 268.34816 
L 180.532818 285.82016 
L 181.183429 278.18624 
L 181.834039 281.80608 
L 182.484649 275.84768 
L 183.13526 286.28608 
L 183.78587 272.03072 
L 184.43648 278.62528 
L 185.087091 283.11424 
L 185.737701 289.6192 
L 187.038921 278.06976 
L 187.689532 283.02464 
L 188.340142 280.30976 
L 188.990752 280.59648 
L 189.641363 287.89888 
L 190.291973 275.60576 
L 190.942583 287.16416 
L 191.593194 285.62304 
L 192.243804 278.60736 
L 192.894414 282.82752 
L 193.545025 287.89888 
L 194.195635 281.3312 
L 194.846245 272.89088 
L 195.496856 273.34784 
L 196.147466 275.8208 
L 196.798076 279.38688 
L 197.448686 291.47392 
L 198.099297 270.52544 
L 198.749907 286.1248 
L 199.400517 278.09664 
L 200.051128 278.96576 
L 200.701738 288.42752 
L 201.352348 287.90784 
L 202.002959 276.50176 
L 202.653569 286.71616 
L 203.304179 281.83296 
L 203.95479 284.2432 
L 204.6054 279.54816 
L 205.25601 286.40256 
L 205.906621 235.86816 
L 206.557231 283.50848 
L 207.858451 268.44672 
L 208.509062 290.52416 
L 209.159672 279.92448 
L 209.810282 288.3648 
L 210.460893 272.16512 
L 211.111503 272.00384 
L 211.762113 278.38336 
L 212.412724 272.26368 
L 213.063334 276.65408 
L 213.713944 278.97472 
L 214.364555 271.27808 
L 215.015165 278.67904 
L 215.665775 289.1264 
L 216.316385 275.104 
L 216.966996 284.29696 
L 217.617606 279.66464 
L 218.268216 279.52128 
L 218.918827 284.39552 
L 219.569437 269.0112 
L 220.220047 274.46784 
L 220.870658 265.89312 
L 221.521268 284.8256 
L 222.171878 276.43008 
L 222.822489 286.08 
L 223.473099 269.62048 
L 224.123709 290.75712 
L 224.77432 282.19136 
L 225.42493 284.27904 
L 226.07554 278.08768 
L 226.72615 284.54784 
L 227.376761 268.72448 
L 228.027371 281.89568 
L 228.677981 266.6368 
L 229.328592 254.11968 
L 229.979202 278.9568 
L 230.629812 273.42848 
L 231.280423 276.45696 
L 231.931033 269.8624 
L 232.581643 284.21632 
L 233.232254 266.97728 
L 233.882864 53.568 
L 234.533474 279.69152 
L 235.184085 285.39904 
L 235.834695 271.91424 
L 236.485305 287.11936 
L 237.135915 283.71456 
L 237.786526 291.22304 
L 238.437136 274.656 
L 239.087746 287.01184 
L 239.738357 283.69664 
L 240.388967 273.2672 
L 241.039577 281.76128 
L 241.690188 284.72704 
L 242.340798 281.18784 
L 242.991408 284.7808 
L 243.642019 287.12832 
L 244.292629 286.4384 
L 244.943239 283.20384 
L 245.59385 283.60704 
L 246.24446 284.14464 
L 246.89507 276.1792 
L 247.54568 283.36512 
L 248.196291 283.3472 
L 248.846901 282.28992 
L 249.497511 274.77248 
L 250.798732 257.53344 
L 251.449342 284.40448 
L 252.099953 260.66944 
L 252.750563 272.51456 
L 253.401173 259.45088 
L 254.051784 280.82048 
L 254.702394 291.06176 
L 255.353004 284.52096 
L 256.003615 283.05152 
L 256.654225 260.12288 
L 257.304835 286.51008 
L 257.955445 267.63136 
L 258.606056 279.45856 
L 259.256666 261.7536 
L 259.907276 269.08288 
L 260.557887 280.4352 
L 261.859107 280.87424 
L 262.509718 290.0224 
L 263.160328 281.42976 
L 263.810938 268.28544 
L 264.461549 279.88864 
L 265.112159 277.7472 
L 265.762769 274.208 
L 266.413379 265.86624 
L 267.06399 282.90816 
L 267.7146 277.05728 
L 268.36521 279.3152 
L 269.015821 278.8224 
L 269.666431 278.56256 
L 270.317041 272.03968 
L 270.967652 275.22048 
L 271.618262 277.01248 
L 272.268872 270.02368 
L 272.919483 274.26176 
L 273.570093 289.78048 
L 274.220703 278.3296 
L 274.871314 286.38464 
L 275.521924 283.22176 
L 276.172534 272.2816 
L 276.823144 274.2528 
L 277.473755 286.26816 
L 278.124365 273.06112 
L 278.774975 283.47264 
L 279.425586 287.45088 
L 280.076196 277.04832 
L 280.726806 271.1616 
L 281.377417 282.28096 
L 282.028027 267.2192 
L 282.678637 274.06464 
L 283.329248 282.97088 
L 283.979858 290.2016 
L 284.630468 286.81472 
L 285.281079 278.32064 
L 285.931689 262.68544 
L 286.582299 275.6416 
L 287.232909 285.43488 
L 287.88352 272.58624 
L 288.53413 276.03584 
L 289.18474 280.60544 
L 289.835351 283.616 
L 290.485961 271.90528 
L 291.787182 284.40448 
L 292.437792 284.95104 
L 293.088402 281.6448 
L 293.739013 284.61056 
L 294.389623 276.21504 
L 295.040233 278.40128 
L 295.690844 281.85088 
L 296.341454 275.13088 
L 296.992064 275.04128 
L 298.293285 282.99776 
L 298.943895 288.06912 
L 299.594505 286.38464 
L 300.245116 279.5392 
L 300.895726 287.41504 
L 301.546336 278.3296 
L 302.196947 285.51552 
L 302.847557 290.22848 
L 303.498167 289.18016 
L 304.148778 284.66432 
L 304.799388 281.5104 
L 305.449998 289.69088 
L 306.100608 286.23232 
L 306.751219 284.34176 
L 307.401829 286.13376 
L 308.052439 289.53856 
L 308.70305 281.6 
L 309.35366 286.96704 
L 310.00427 276.86016 
L 310.654881 287.07456 
L 311.305491 277.55904 
L 311.956101 283.47264 
L 312.606712 291.30368 
L 313.257322 282.496 
L 313.907932 291.456 
L 314.558543 292.23552 
L 315.209153 290.14784 
L 315.859763 285.33632 
L 316.510373 282.55872 
L 317.160984 274.27968 
L 317.811594 287.89888 
L 318.462204 281.26848 
L 319.112815 278.18624 
L 319.763425 287.00288 
L 320.414035 283.31136 
L 321.064646 284.96896 
L 321.715256 285.99936 
L 322.365866 289.3952 
L 323.016477 289.72672 
L 323.667087 284.26112 
L 324.317697 280.73088 
L 324.968308 287.30752 
L 325.618918 282.59456 
L 326.269528 290.36288 
L 326.920138 275.2384 
L 327.570749 285.86496 
L 328.221359 290.09408 
L 328.871969 275.2832 
L 329.52258 291.28576 
L 330.17319 290.26432 
L 330.8238 290.34496 
L 331.474411 288.01536 
L 332.125021 287.62112 
L 332.775631 282.88128 
L 333.426242 286.17856 
L 334.076852 287.34336 
L 334.727462 282.32576 
L 335.378073 285.71264 
L 336.028683 291.26784 
L 336.679293 286.1696 
L 337.329903 289.71776 
L 337.980514 289.37728 
L 338.631124 284.59264 
L 339.281734 289.0368 
L 339.932345 287.56736 
L 340.582955 287.56736 
L 341.233565 290.13888 
L 341.884176 291.84128 
L 342.534786 278.72384 
L 343.185396 287.88096 
L 343.836007 289.80736 
L 344.486617 283.06048 
L 345.137227 290.75712 
L 345.787837 287.16416 
L 346.438448 285.3632 
L 347.089058 291.232 
L 347.739668 277.568 
L 348.390279 282.66624 
L 349.040889 282.81856 
L 349.691499 289.216 
L 350.99272 279.96928 
L 351.64333 286.64448 
L 352.293941 289.56544 
L 352.944551 290.16576 
L 354.245772 285.88288 
L 354.896382 292.63872 
L 355.546992 287.4688 
L 356.197602 288.29312 
L 356.848213 289.5296 
L 357.498823 288.29312 
L 358.149433 290.34496 
L 358.800044 287.41504 
L 359.450654 287.41504 
L 360.101264 290.63168 
L 360.751875 290.39872 
L 361.402485 283.89376 
L 362.053095 289.71776 
L 363.354316 286.8416 
L 364.004926 285.632 
L 364.655537 287.5136 
L 365.306147 283.06048 
L 365.956757 288.75904 
L 366.607367 283.3472 
L 367.257978 287.45088 
L 367.908588 289.67296 
L 368.559198 286.02624 
L 369.209809 289.3056 
L 370.511029 284.56576 
L 371.81225 289.52064 
L 372.46286 285.70368 
L 373.113471 286.07104 
L 373.764081 287.31648 
L 374.414691 287.32544 
L 375.065302 289.09952 
L 375.715912 289.38624 
L 376.366522 290.53312 
L 377.017132 286.54592 
L 377.667743 286.976 
L 378.318353 290.97216 
L 378.968963 287.30752 
L 379.619574 286.86848 
L 380.270184 286.08896 
L 380.920794 286.41152 
L 381.571405 287.43296 
L 382.222015 285.87392 
L 382.872625 289.1712 
L 383.523236 289.15328 
L 384.173846 290.5152 
L 384.824456 286.36672 
L 385.475066 289.78048 
L 386.125677 290.23744 
L 386.776287 287.99744 
L 387.426897 276.60032 
L 388.077508 287.77344 
L 388.728118 290.14784 
L 389.378728 285.44384 
L 390.029339 288.24832 
L 390.679949 285.62304 
L 391.330559 286.87744 
L 391.98117 286.19648 
L 392.63178 289.43104 
L 393.28239 285.856 
L 393.933001 289.89696 
L 394.583611 289.91488 
L 395.234221 284.50304 
L 395.884831 285.23776 
L 396.535442 287.52256 
L 397.186052 287.3792 
L 397.836662 284.41344 
L 398.487273 283.45472 
L 398.487273 283.45472 
" clip-path="url(#p66016c9e35)" style="fill: none; stroke: #1f77b4; stroke-width: 1.5; stroke-linecap: square"/>
   </g>
   <g id="line2d_14">
    <path d="M 73.832727 295.488 
L 105.062022 295.488 
L 105.712633 267.650177 
L 106.363243 267.170637 
L 107.013853 267.323493 
L 107.664463 267.211137 
L 110.917515 265.610342 
L 112.218736 266.073932 
L 112.869346 265.327207 
L 113.519956 265.571278 
L 114.170567 266.018201 
L 114.821177 270.43817 
L 115.471787 270.474727 
L 116.122398 270.267392 
L 116.773008 270.237823 
L 117.423618 270.035687 
L 119.375449 270.0192 
L 121.97789 269.482138 
L 123.279111 270.183168 
L 123.929721 270.222592 
L 124.580332 270.44265 
L 125.230942 270.959641 
L 125.881552 271.132032 
L 126.532163 275.829939 
L 127.833383 276.316468 
L 128.483993 275.860044 
L 129.785214 275.86775 
L 130.435824 275.693927 
L 131.737045 276.037632 
L 133.688876 275.953767 
L 134.339486 276.149632 
L 135.640707 276.12311 
L 137.592538 276.690458 
L 138.243148 277.082907 
L 138.893758 277.712076 
L 139.544369 277.650253 
L 140.845589 278.185881 
L 142.14681 279.072921 
L 143.448031 279.38921 
L 144.098641 279.02633 
L 144.749251 278.879206 
L 145.399862 279.695462 
L 146.050472 279.878067 
L 146.701082 279.77216 
L 147.351692 279.904051 
L 148.002303 279.724851 
L 148.652913 280.079309 
L 149.303523 280.252058 
L 149.954134 280.706867 
L 151.255354 280.518349 
L 153.207185 280.962048 
L 154.508406 280.76905 
L 155.159016 280.75095 
L 155.809627 281.026739 
L 156.460237 281.151462 
L 157.761457 280.608665 
L 159.713288 280.131456 
L 160.363899 280.237005 
L 161.014509 280.56727 
L 161.665119 280.317824 
L 163.61695 280.313702 
L 164.267561 280.554368 
L 166.219392 280.438605 
L 167.520612 280.188084 
L 168.171222 280.440755 
L 168.821833 280.190234 
L 170.123053 280.112281 
L 170.773664 279.836672 
L 172.074884 279.580775 
L 172.725495 279.37792 
L 174.026715 279.269145 
L 175.327936 278.91433 
L 175.978546 279.190298 
L 176.629156 279.633101 
L 177.279767 279.857639 
L 179.231598 279.481676 
L 179.882208 279.225421 
L 180.532818 279.471821 
L 182.484649 279.121485 
L 183.13526 279.337062 
L 184.43648 279.068084 
L 187.038921 279.66912 
L 187.689532 279.654784 
L 188.340142 279.4944 
L 188.990752 279.45408 
L 189.641363 279.896884 
L 190.291973 279.89975 
L 190.942583 280.129664 
L 192.243804 280.24471 
L 193.545025 280.393805 
L 194.195635 280.640384 
L 196.798076 280.045261 
L 197.448686 280.233062 
L 200.701738 280.633216 
L 201.352348 280.93463 
L 202.002959 280.87191 
L 205.25601 281.551258 
L 205.906621 280.684288 
L 207.207841 280.529818 
L 207.858451 280.350796 
L 208.509062 280.458316 
L 209.159672 280.243994 
L 209.810282 280.224461 
L 211.111503 279.888819 
L 212.412724 279.997235 
L 213.063334 279.813914 
L 213.713944 279.829684 
L 214.364555 279.619124 
L 217.617606 279.838464 
L 218.268216 279.636505 
L 218.918827 279.643674 
L 220.870658 279.003034 
L 221.521268 279.087616 
L 222.171878 278.85824 
L 222.822489 279.067725 
L 223.473099 278.716851 
L 225.42493 278.920244 
L 226.07554 278.724019 
L 226.72615 278.788352 
L 227.376761 278.705024 
L 228.027371 278.875981 
L 228.677981 278.692301 
L 229.328592 278.186956 
L 229.979202 277.936615 
L 230.629812 277.994675 
L 231.931033 277.636634 
L 232.581643 277.741645 
L 233.232254 277.31264 
L 233.882864 272.625842 
L 235.184085 272.663297 
L 235.834695 272.464921 
L 237.786526 272.702182 
L 238.437136 273.477939 
L 239.738357 273.704628 
L 240.388967 273.801038 
L 241.039577 273.625779 
L 241.690188 273.72183 
L 242.340798 273.578291 
L 244.943239 274.512999 
L 246.89507 274.853479 
L 247.54568 274.9472 
L 248.196291 274.831617 
L 248.846901 274.975333 
L 250.148122 274.504218 
L 250.798732 274.064461 
L 251.449342 274.06464 
L 252.099953 273.897804 
L 253.401173 273.729893 
L 254.051784 273.649792 
L 254.702394 273.942427 
L 255.353004 273.911244 
L 256.003615 274.179867 
L 256.654225 273.567181 
L 257.304835 273.653556 
L 257.955445 273.320601 
L 258.606056 273.348019 
L 259.256666 272.892133 
L 260.557887 272.870092 
L 261.208497 273.150003 
L 261.859107 273.685093 
L 263.160328 274.066432 
L 263.810938 273.903001 
L 264.461549 274.103527 
L 265.112159 273.974143 
L 265.762769 274.118759 
L 266.413379 278.364724 
L 267.06399 278.429056 
L 267.7146 278.262221 
L 268.36521 278.41024 
L 269.666431 278.141261 
L 270.317041 277.757594 
L 270.967652 277.768884 
L 272.268872 277.295436 
L 272.919483 277.315328 
L 273.570093 277.475712 
L 274.220703 277.347764 
L 274.871314 277.451699 
L 275.521924 277.420519 
L 276.823144 276.879872 
L 277.473755 276.941159 
L 278.124365 276.73024 
L 278.774975 276.7168 
L 279.425586 276.942233 
L 280.076196 276.815898 
L 280.726806 276.572187 
L 281.377417 276.572007 
L 282.028027 276.420941 
L 282.678637 276.589568 
L 283.329248 277.098318 
L 283.979858 277.214259 
L 284.630468 277.737165 
L 285.931689 277.917978 
L 287.232909 277.701862 
L 288.53413 277.322855 
L 289.18474 277.732505 
L 289.835351 277.674624 
L 290.485961 277.760102 
L 291.136571 277.730893 
L 291.787182 278.18391 
L 292.437792 278.501274 
L 294.389623 278.511846 
L 295.040233 278.279424 
L 295.690844 278.287846 
L 296.341454 278.424755 
L 296.992064 278.327808 
L 297.642674 278.348595 
L 298.293285 278.52439 
L 298.943895 278.968448 
L 302.196947 279.378816 
L 303.498167 280.021785 
L 304.799388 280.404556 
L 305.449998 280.713139 
L 306.100608 280.642176 
L 306.751219 280.762419 
L 307.401829 280.757401 
L 308.70305 281.070105 
L 309.35366 281.32439 
L 310.00427 281.13623 
L 310.654881 281.416499 
L 311.956101 281.218662 
L 313.257322 281.730458 
L 313.907932 281.913959 
L 314.558543 282.414285 
L 315.209153 282.735949 
L 315.859763 282.783258 
L 317.160984 282.379699 
L 317.811594 282.571264 
L 318.462204 282.942925 
L 319.763425 283.025178 
L 321.064646 283.418342 
L 322.365866 283.641805 
L 323.016477 283.998234 
L 323.667087 284.123495 
L 324.317697 284.050022 
L 327.570749 284.360935 
L 328.221359 284.525799 
L 328.871969 284.528845 
L 330.17319 285.08329 
L 330.8238 285.230234 
L 333.426242 285.296 
L 334.076852 285.476275 
L 336.028683 285.363916 
L 336.679293 285.394022 
L 337.329903 285.55817 
L 340.582955 285.602253 
L 341.884176 285.870515 
L 343.185396 285.923916 
L 343.836007 286.168884 
L 347.089058 286.101145 
L 347.739668 285.849549 
L 349.040889 285.801344 
L 349.691499 286.10007 
L 350.99272 286.001331 
L 351.64333 286.170496 
L 356.197602 286.516173 
L 356.848213 286.692147 
L 357.498823 286.711859 
L 358.149433 286.866867 
L 358.800044 286.80791 
L 359.450654 287.051443 
L 361.402485 287.325082 
L 366.607367 287.107891 
L 367.908588 287.2896 
L 368.559198 287.184768 
L 369.209809 287.247488 
L 371.16164 287.143015 
L 373.113471 287.085491 
L 374.414691 286.938727 
L 375.065302 287.14624 
L 378.968963 287.299993 
L 379.619574 287.212723 
L 380.920794 287.458048 
L 381.571405 287.550336 
L 382.222015 287.483495 
L 384.824456 287.778816 
L 386.776287 287.859456 
L 387.426897 287.538688 
L 390.029339 287.499264 
L 391.330559 287.394073 
L 395.884831 287.272755 
L 397.836662 287.334938 
L 398.487273 287.228851 
L 398.487273 287.228851 
" clip-path="url(#p66016c9e35)" style="fill: none; stroke: #ff7f0e; stroke-width: 1.5; stroke-linecap: square"/>
   </g>
   <g id="patch_3">
    <path d="M 57.6 307.584 
L 57.6 41.472 
" style="fill: none; stroke: #000000; stroke-width: 0.8; stroke-linejoin: miter; stroke-linecap: square"/>
   </g>
   <g id="patch_4">
    <path d="M 414.72 307.584 
L 414.72 41.472 
" style="fill: none; stroke: #000000; stroke-width: 0.8; stroke-linejoin: miter; stroke-linecap: square"/>
   </g>
   <g id="patch_5">
    <path d="M 57.6 307.584 
L 414.72 307.584 
" style="fill: none; stroke: #000000; stroke-width: 0.8; stroke-linejoin: miter; stroke-linecap: square"/>
   </g>
   <g id="patch_6">
    <path d="M 57.6 41.472 
L 414.72 41.472 
" style="fill: none; stroke: #000000; stroke-width: 0.8; stroke-linejoin: miter; stroke-linecap: square"/>
   </g>
   <g id="text_15">
    <!-- Epoch Duration -->
    <g transform="translate(189.82125 35.472) scale(0.12 -0.12)">
     <defs>
      <path id="DejaVuSans-20" transform="scale(0.015625)"/>
     </defs>
     <use xlink:href="#DejaVuSans-45"/>
     <use xlink:href="#DejaVuSans-70" x="63.183594"/>
     <use xlink:href="#DejaVuSans-6f" x="126.660156"/>
     <use xlink:href="#DejaVuSans-63" x="187.841797"/>
     <use xlink:href="#DejaVuSans-68" x="242.822266"/>
     <use xlink:href="#DejaVuSans-20" x="306.201172"/>
     <use xlink:href="#DejaVuSans-44" x="337.988281"/>
     <use xlink:href="#DejaVuSans-75" x="414.990234"/>
     <use xlink:href="#DejaVuSans-72" x="478.369141"/>
     <use xlink:href="#DejaVuSans-61" x="519.482422"/>
     <use xlink:href="#DejaVuSans-74" x="580.761719"/>
     <use xlink:href="#DejaVuSans-69" x="619.970703"/>
     <use xlink:href="#DejaVuSans-6f" x="647.753906"/>
     <use xlink:href="#DejaVuSans-6e" x="708.935547"/>
    </g>
   </g>
   <g id="legend_1">
    <g id="patch_7">
     <path d="M 295.346563 78.82825 
L 407.72 78.82825 
Q 409.72 78.82825 409.72 76.82825 
L 409.72 48.472 
Q 409.72 46.472 407.72 46.472 
L 295.346563 46.472 
Q 293.346563 46.472 293.346563 48.472 
L 293.346563 76.82825 
Q 293.346563 78.82825 295.346563 78.82825 
z
" style="fill: #ffffff; opacity: 0.8; stroke: #cccccc; stroke-linejoin: miter"/>
    </g>
    <g id="line2d_15">
     <path d="M 297.346563 54.570437 
L 307.346563 54.570437 
L 317.346563 54.570437 
" style="fill: none; stroke: #1f77b4; stroke-width: 1.5; stroke-linecap: square"/>
    </g>
    <g id="text_16">
     <!-- Duration -->
     <g transform="translate(325.346563 58.070437) scale(0.1 -0.1)">
      <use xlink:href="#DejaVuSans-44"/>
      <use xlink:href="#DejaVuSans-75" x="77.001953"/>
      <use xlink:href="#DejaVuSans-72" x="140.380859"/>
      <use xlink:href="#DejaVuSans-61" x="181.494141"/>
      <use xlink:href="#DejaVuSans-74" x="242.773438"/>
      <use xlink:href="#DejaVuSans-69" x="281.982422"/>
      <use xlink:href="#DejaVuSans-6f" x="309.765625"/>
      <use xlink:href="#DejaVuSans-6e" x="370.947266"/>
     </g>
    </g>
    <g id="line2d_16">
     <path d="M 297.346563 69.248562 
L 307.346563 69.248562 
L 317.346563 69.248562 
" style="fill: none; stroke: #ff7f0e; stroke-width: 1.5; stroke-linecap: square"/>
    </g>
    <g id="text_17">
     <!-- Moving Average -->
     <g transform="translate(325.346563 72.748562) scale(0.1 -0.1)">
      <defs>
       <path id="DejaVuSans-4d" d="M 628 4666 
L 1569 4666 
L 2759 1491 
L 3956 4666 
L 4897 4666 
L 4897 0 
L 4281 0 
L 4281 4097 
L 3078 897 
L 2444 897 
L 1241 4097 
L 1241 0 
L 628 0 
L 628 4666 
z
" transform="scale(0.015625)"/>
       <path id="DejaVuSans-76" d="M 191 3500 
L 800 3500 
L 1894 563 
L 2988 3500 
L 3597 3500 
L 2284 0 
L 1503 0 
L 191 3500 
z
" transform="scale(0.015625)"/>
       <path id="DejaVuSans-67" d="M 2906 1791 
Q 2906 2416 2648 2759 
Q 2391 3103 1925 3103 
Q 1463 3103 1205 2759 
Q 947 2416 947 1791 
Q 947 1169 1205 825 
Q 1463 481 1925 481 
Q 2391 481 2648 825 
Q 2906 1169 2906 1791 
z
M 3481 434 
Q 3481 -459 3084 -895 
Q 2688 -1331 1869 -1331 
Q 1566 -1331 1297 -1286 
Q 1028 -1241 775 -1147 
L 775 -588 
Q 1028 -725 1275 -790 
Q 1522 -856 1778 -856 
Q 2344 -856 2625 -561 
Q 2906 -266 2906 331 
L 2906 616 
Q 2728 306 2450 153 
Q 2172 0 1784 0 
Q 1141 0 747 490 
Q 353 981 353 1791 
Q 353 2603 747 3093 
Q 1141 3584 1784 3584 
Q 2172 3584 2450 3431 
Q 2728 3278 2906 2969 
L 2906 3500 
L 3481 3500 
L 3481 434 
z
" transform="scale(0.015625)"/>
       <path id="DejaVuSans-41" d="M 2188 4044 
L 1331 1722 
L 3047 1722 
L 2188 4044 
z
M 1831 4666 
L 2547 4666 
L 4325 0 
L 3669 0 
L 3244 1197 
L 1141 1197 
L 716 0 
L 50 0 
L 1831 4666 
z
" transform="scale(0.015625)"/>
       <path id="DejaVuSans-65" d="M 3597 1894 
L 3597 1613 
L 953 1613 
Q 991 1019 1311 708 
Q 1631 397 2203 397 
Q 2534 397 2845 478 
Q 3156 559 3463 722 
L 3463 178 
Q 3153 47 2828 -22 
Q 2503 -91 2169 -91 
Q 1331 -91 842 396 
Q 353 884 353 1716 
Q 353 2575 817 3079 
Q 1281 3584 2069 3584 
Q 2775 3584 3186 3129 
Q 3597 2675 3597 1894 
z
M 3022 2063 
Q 3016 2534 2758 2815 
Q 2500 3097 2075 3097 
Q 1594 3097 1305 2825 
Q 1016 2553 972 2059 
L 3022 2063 
z
" transform="scale(0.015625)"/>
      </defs>
      <use xlink:href="#DejaVuSans-4d"/>
      <use xlink:href="#DejaVuSans-6f" x="86.279297"/>
      <use xlink:href="#DejaVuSans-76" x="147.460938"/>
      <use xlink:href="#DejaVuSans-69" x="206.640625"/>
      <use xlink:href="#DejaVuSans-6e" x="234.423828"/>
      <use xlink:href="#DejaVuSans-67" x="297.802734"/>
      <use xlink:href="#DejaVuSans-20" x="361.279297"/>
      <use xlink:href="#DejaVuSans-41" x="393.066406"/>
      <use xlink:href="#DejaVuSans-76" x="455.599609"/>
      <use xlink:href="#DejaVuSans-65" x="514.779297"/>
      <use xlink:href="#DejaVuSans-72" x="576.302734"/>
      <use xlink:href="#DejaVuSans-61" x="617.416016"/>
      <use xlink:href="#DejaVuSans-67" x="678.695312"/>
      <use xlink:href="#DejaVuSans-65" x="742.171875"/>
     </g>
    </g>
   </g>
  </g>
 </g>
 <defs>
  <clipPath id="p66016c9e35">
   <rect x="57.6" y="41.472" width="357.12" height="266.112"/>
  </clipPath>
 </defs>
</svg>
