<svg xmlns="http://www.w3.org/2000/svg" width="2011" height="1164" style="cursor: move;"><g transform="translate(-416.3717038912364,-1181.8500488599789) scale(3.317278183257773)"><rect class="rect" id="0_0" width="84" height="84" x="236" y="528" style="fill: rgb(160, 160, 160); stroke: black; stroke-width: 1; opacity: 0.8;"></rect><rect class="rect" id="0_1" width="84" height="84" x="244" y="536" style="fill: rgb(224, 224, 224); stroke: black; stroke-width: 1; opacity: 0.8;"></rect><rect class="rect" id="0_2" width="84" height="84" x="252" y="544" style="fill: rgb(160, 160, 160); stroke: black; stroke-width: 1; opacity: 0.8;"></rect><rect class="rect" id="0_3" width="84" height="84" x="260" y="552" style="fill: rgb(224, 224, 224); stroke: black; stroke-width: 1; opacity: 0.8;"></rect><rect class="rect" id="1_0" width="20" height="20" x="384" y="448" style="fill: rgb(160, 160, 160); stroke: black; stroke-width: 1; opacity: 0.8;"></rect><rect class="rect" id="1_1" width="20" height="20" x="392" y="456" style="fill: rgb(224, 224, 224); stroke: black; stroke-width: 1; opacity: 0.8;"></rect><rect class="rect" id="1_2" width="20" height="20" x="400" y="464" style="fill: rgb(160, 160, 160); stroke: black; stroke-width: 1; opacity: 0.8;"></rect><rect class="rect" id="1_3" width="20" height="20" x="408" y="472" style="fill: rgb(224, 224, 224); stroke: black; stroke-width: 1; opacity: 0.8;"></rect><rect class="rect" id="1_4" width="20" height="20" x="416" y="480" style="fill: rgb(160, 160, 160); stroke: black; stroke-width: 1; opacity: 0.8;"></rect><rect class="rect" id="1_5" width="20" height="20" x="424" y="488" style="fill: rgb(224, 224, 224); stroke: black; stroke-width: 1; opacity: 0.8;"></rect><rect class="rect" id="1_6" width="20" height="20" x="432" y="496" style="fill: rgb(160, 160, 160); stroke: black; stroke-width: 1; opacity: 0.8;"></rect><rect class="rect" id="1_7" width="20" height="20" x="440" y="504" style="fill: rgb(224, 224, 224); stroke: black; stroke-width: 1; opacity: 0.8;"></rect><rect class="rect" id="1_8" width="20" height="20" x="448" y="512" style="fill: rgb(160, 160, 160); stroke: black; stroke-width: 1; opacity: 0.8;"></rect><rect class="rect" id="1_9" width="20" height="20" x="456" y="520" style="fill: rgb(224, 224, 224); stroke: black; stroke-width: 1; opacity: 0.8;"></rect><rect class="rect" id="1_10" width="20" height="20" x="464" y="528" style="fill: rgb(160, 160, 160); stroke: black; stroke-width: 1; opacity: 0.8;"></rect><rect class="rect" id="1_11" width="20" height="20" x="472" y="536" style="fill: rgb(224, 224, 224); stroke: black; stroke-width: 1; opacity: 0.8;"></rect><rect class="rect" id="1_12" width="20" height="20" x="480" y="544" style="fill: rgb(160, 160, 160); stroke: black; stroke-width: 1; opacity: 0.8;"></rect><rect class="rect" id="1_13" width="20" height="20" x="488" y="552" style="fill: rgb(224, 224, 224); stroke: black; stroke-width: 1; opacity: 0.8;"></rect><rect class="rect" id="1_14" width="20" height="20" x="496" y="560" style="fill: rgb(160, 160, 160); stroke: black; stroke-width: 1; opacity: 0.8;"></rect><rect class="rect" id="1_15" width="20" height="20" x="504" y="568" style="fill: rgb(224, 224, 224); stroke: black; stroke-width: 1; opacity: 0.8;"></rect><rect class="rect" id="1_16" width="20" height="20" x="512" y="576" style="fill: rgb(160, 160, 160); stroke: black; stroke-width: 1; opacity: 0.8;"></rect><rect class="rect" id="1_17" width="20" height="20" x="520" y="584" style="fill: rgb(224, 224, 224); stroke: black; stroke-width: 1; opacity: 0.8;"></rect><rect class="rect" id="1_18" width="20" height="20" x="528" y="592" style="fill: rgb(160, 160, 160); stroke: black; stroke-width: 1; opacity: 0.8;"></rect><rect class="rect" id="1_19" width="20" height="20" x="536" y="600" style="fill: rgb(224, 224, 224); stroke: black; stroke-width: 1; opacity: 0.8;"></rect><rect class="rect" id="1_20" width="20" height="20" x="544" y="608" style="fill: rgb(160, 160, 160); stroke: black; stroke-width: 1; opacity: 0.8;"></rect><rect class="rect" id="1_21" width="20" height="20" x="552" y="616" style="fill: rgb(224, 224, 224); stroke: black; stroke-width: 1; opacity: 0.8;"></rect><rect class="rect" id="1_22" width="20" height="20" x="560" y="624" style="fill: rgb(160, 160, 160); stroke: black; stroke-width: 1; opacity: 0.8;"></rect><rect class="rect" id="1_23" width="20" height="20" x="568" y="632" style="fill: rgb(224, 224, 224); stroke: black; stroke-width: 1; opacity: 0.8;"></rect><rect class="rect" id="1_24" width="20" height="20" x="576" y="640" style="fill: rgb(160, 160, 160); stroke: black; stroke-width: 1; opacity: 0.8;"></rect><rect class="rect" id="1_25" width="20" height="20" x="584" y="648" style="fill: rgb(224, 224, 224); stroke: black; stroke-width: 1; opacity: 0.8;"></rect><rect class="rect" id="1_26" width="20" height="20" x="592" y="656" style="fill: rgb(160, 160, 160); stroke: black; stroke-width: 1; opacity: 0.8;"></rect><rect class="rect" id="1_27" width="20" height="20" x="600" y="664" style="fill: rgb(224, 224, 224); stroke: black; stroke-width: 1; opacity: 0.8;"></rect><rect class="rect" id="1_28" width="20" height="20" x="608" y="672" style="fill: rgb(160, 160, 160); stroke: black; stroke-width: 1; opacity: 0.8;"></rect><rect class="rect" id="1_29" width="20" height="20" x="616" y="680" style="fill: rgb(224, 224, 224); stroke: black; stroke-width: 1; opacity: 0.8;"></rect><rect class="rect" id="1_30" width="20" height="20" x="624" y="688" style="fill: rgb(160, 160, 160); stroke: black; stroke-width: 1; opacity: 0.8;"></rect><rect class="rect" id="1_31" width="20" height="20" x="632" y="696" style="fill: rgb(224, 224, 224); stroke: black; stroke-width: 1; opacity: 0.8;"></rect><rect class="rect" id="2_0" width="9" height="9" x="662" y="325.5" style="fill: rgb(160, 160, 160); stroke: black; stroke-width: 1; opacity: 0.8;"></rect><rect class="rect" id="2_1" width="9" height="9" x="670" y="333.5" style="fill: rgb(224, 224, 224); stroke: black; stroke-width: 1; opacity: 0.8;"></rect><rect class="rect" id="2_2" width="9" height="9" x="678" y="341.5" style="fill: rgb(160, 160, 160); stroke: black; stroke-width: 1; opacity: 0.8;"></rect><rect class="rect" id="2_3" width="9" height="9" x="686" y="349.5" style="fill: rgb(224, 224, 224); stroke: black; stroke-width: 1; opacity: 0.8;"></rect><rect class="rect" id="2_4" width="9" height="9" x="694" y="357.5" style="fill: rgb(160, 160, 160); stroke: black; stroke-width: 1; opacity: 0.8;"></rect><rect class="rect" id="2_5" width="9" height="9" x="702" y="365.5" style="fill: rgb(224, 224, 224); stroke: black; stroke-width: 1; opacity: 0.8;"></rect><rect class="rect" id="2_6" width="9" height="9" x="710" y="373.5" style="fill: rgb(160, 160, 160); stroke: black; stroke-width: 1; opacity: 0.8;"></rect><rect class="rect" id="2_7" width="9" height="9" x="718" y="381.5" style="fill: rgb(224, 224, 224); stroke: black; stroke-width: 1; opacity: 0.8;"></rect><rect class="rect" id="2_8" width="9" height="9" x="726" y="389.5" style="fill: rgb(160, 160, 160); stroke: black; stroke-width: 1; opacity: 0.8;"></rect><rect class="rect" id="2_9" width="9" height="9" x="734" y="397.5" style="fill: rgb(224, 224, 224); stroke: black; stroke-width: 1; opacity: 0.8;"></rect><rect class="rect" id="2_10" width="9" height="9" x="742" y="405.5" style="fill: rgb(160, 160, 160); stroke: black; stroke-width: 1; opacity: 0.8;"></rect><rect class="rect" id="2_11" width="9" height="9" x="750" y="413.5" style="fill: rgb(224, 224, 224); stroke: black; stroke-width: 1; opacity: 0.8;"></rect><rect class="rect" id="2_12" width="9" height="9" x="758" y="421.5" style="fill: rgb(160, 160, 160); stroke: black; stroke-width: 1; opacity: 0.8;"></rect><rect class="rect" id="2_13" width="9" height="9" x="766" y="429.5" style="fill: rgb(224, 224, 224); stroke: black; stroke-width: 1; opacity: 0.8;"></rect><rect class="rect" id="2_14" width="9" height="9" x="774" y="437.5" style="fill: rgb(160, 160, 160); stroke: black; stroke-width: 1; opacity: 0.8;"></rect><rect class="rect" id="2_15" width="9" height="9" x="782" y="445.5" style="fill: rgb(224, 224, 224); stroke: black; stroke-width: 1; opacity: 0.8;"></rect><rect class="rect" id="2_16" width="9" height="9" x="790" y="453.5" style="fill: rgb(160, 160, 160); stroke: black; stroke-width: 1; opacity: 0.8;"></rect><rect class="rect" id="2_17" width="9" height="9" x="798" y="461.5" style="fill: rgb(224, 224, 224); stroke: black; stroke-width: 1; opacity: 0.8;"></rect><rect class="rect" id="2_18" width="9" height="9" x="806" y="469.5" style="fill: rgb(160, 160, 160); stroke: black; stroke-width: 1; opacity: 0.8;"></rect><rect class="rect" id="2_19" width="9" height="9" x="814" y="477.5" style="fill: rgb(224, 224, 224); stroke: black; stroke-width: 1; opacity: 0.8;"></rect><rect class="rect" id="2_20" width="9" height="9" x="822" y="485.5" style="fill: rgb(160, 160, 160); stroke: black; stroke-width: 1; opacity: 0.8;"></rect><rect class="rect" id="2_21" width="9" height="9" x="830" y="493.5" style="fill: rgb(224, 224, 224); stroke: black; stroke-width: 1; opacity: 0.8;"></rect><rect class="rect" id="2_22" width="9" height="9" x="838" y="501.5" style="fill: rgb(160, 160, 160); stroke: black; stroke-width: 1; opacity: 0.8;"></rect><rect class="rect" id="2_23" width="9" height="9" x="846" y="509.5" style="fill: rgb(224, 224, 224); stroke: black; stroke-width: 1; opacity: 0.8;"></rect><rect class="rect" id="2_24" width="9" height="9" x="854" y="517.5" style="fill: rgb(160, 160, 160); stroke: black; stroke-width: 1; opacity: 0.8;"></rect><rect class="rect" id="2_25" width="9" height="9" x="862" y="525.5" style="fill: rgb(224, 224, 224); stroke: black; stroke-width: 1; opacity: 0.8;"></rect><rect class="rect" id="2_26" width="9" height="9" x="870" y="533.5" style="fill: rgb(160, 160, 160); stroke: black; stroke-width: 1; opacity: 0.8;"></rect><rect class="rect" id="2_27" width="9" height="9" x="878" y="541.5" style="fill: rgb(224, 224, 224); stroke: black; stroke-width: 1; opacity: 0.8;"></rect><rect class="rect" id="2_28" width="9" height="9" x="886" y="549.5" style="fill: rgb(160, 160, 160); stroke: black; stroke-width: 1; opacity: 0.8;"></rect><rect class="rect" id="2_29" width="9" height="9" x="894" y="557.5" style="fill: rgb(224, 224, 224); stroke: black; stroke-width: 1; opacity: 0.8;"></rect><rect class="rect" id="2_30" width="9" height="9" x="902" y="565.5" style="fill: rgb(160, 160, 160); stroke: black; stroke-width: 1; opacity: 0.8;"></rect><rect class="rect" id="2_31" width="9" height="9" x="910" y="573.5" style="fill: rgb(224, 224, 224); stroke: black; stroke-width: 1; opacity: 0.8;"></rect><rect class="rect" id="2_32" width="9" height="9" x="918" y="581.5" style="fill: rgb(160, 160, 160); stroke: black; stroke-width: 1; opacity: 0.8;"></rect><rect class="rect" id="2_33" width="9" height="9" x="926" y="589.5" style="fill: rgb(224, 224, 224); stroke: black; stroke-width: 1; opacity: 0.8;"></rect><rect class="rect" id="2_34" width="9" height="9" x="934" y="597.5" style="fill: rgb(160, 160, 160); stroke: black; stroke-width: 1; opacity: 0.8;"></rect><rect class="rect" id="2_35" width="9" height="9" x="942" y="605.5" style="fill: rgb(224, 224, 224); stroke: black; stroke-width: 1; opacity: 0.8;"></rect><rect class="rect" id="2_36" width="9" height="9" x="950" y="613.5" style="fill: rgb(160, 160, 160); stroke: black; stroke-width: 1; opacity: 0.8;"></rect><rect class="rect" id="2_37" width="9" height="9" x="958" y="621.5" style="fill: rgb(224, 224, 224); stroke: black; stroke-width: 1; opacity: 0.8;"></rect><rect class="rect" id="2_38" width="9" height="9" x="966" y="629.5" style="fill: rgb(160, 160, 160); stroke: black; stroke-width: 1; opacity: 0.8;"></rect><rect class="rect" id="2_39" width="9" height="9" x="974" y="637.5" style="fill: rgb(224, 224, 224); stroke: black; stroke-width: 1; opacity: 0.8;"></rect><rect class="rect" id="2_40" width="9" height="9" x="982" y="645.5" style="fill: rgb(160, 160, 160); stroke: black; stroke-width: 1; opacity: 0.8;"></rect><rect class="rect" id="2_41" width="9" height="9" x="990" y="653.5" style="fill: rgb(224, 224, 224); stroke: black; stroke-width: 1; opacity: 0.8;"></rect><rect class="rect" id="2_42" width="9" height="9" x="998" y="661.5" style="fill: rgb(160, 160, 160); stroke: black; stroke-width: 1; opacity: 0.8;"></rect><rect class="rect" id="2_43" width="9" height="9" x="1006" y="669.5" style="fill: rgb(224, 224, 224); stroke: black; stroke-width: 1; opacity: 0.8;"></rect><rect class="rect" id="2_44" width="9" height="9" x="1014" y="677.5" style="fill: rgb(160, 160, 160); stroke: black; stroke-width: 1; opacity: 0.8;"></rect><rect class="rect" id="2_45" width="9" height="9" x="1022" y="685.5" style="fill: rgb(224, 224, 224); stroke: black; stroke-width: 1; opacity: 0.8;"></rect><rect class="rect" id="2_46" width="9" height="9" x="1030" y="693.5" style="fill: rgb(160, 160, 160); stroke: black; stroke-width: 1; opacity: 0.8;"></rect><rect class="rect" id="2_47" width="9" height="9" x="1038" y="701.5" style="fill: rgb(224, 224, 224); stroke: black; stroke-width: 1; opacity: 0.8;"></rect><rect class="rect" id="2_48" width="9" height="9" x="1046" y="709.5" style="fill: rgb(160, 160, 160); stroke: black; stroke-width: 1; opacity: 0.8;"></rect><rect class="rect" id="2_49" width="9" height="9" x="1054" y="717.5" style="fill: rgb(224, 224, 224); stroke: black; stroke-width: 1; opacity: 0.8;"></rect><rect class="rect" id="2_50" width="9" height="9" x="1062" y="725.5" style="fill: rgb(160, 160, 160); stroke: black; stroke-width: 1; opacity: 0.8;"></rect><rect class="rect" id="2_51" width="9" height="9" x="1070" y="733.5" style="fill: rgb(224, 224, 224); stroke: black; stroke-width: 1; opacity: 0.8;"></rect><rect class="rect" id="2_52" width="9" height="9" x="1078" y="741.5" style="fill: rgb(160, 160, 160); stroke: black; stroke-width: 1; opacity: 0.8;"></rect><rect class="rect" id="2_53" width="9" height="9" x="1086" y="749.5" style="fill: rgb(224, 224, 224); stroke: black; stroke-width: 1; opacity: 0.8;"></rect><rect class="rect" id="2_54" width="9" height="9" x="1094" y="757.5" style="fill: rgb(160, 160, 160); stroke: black; stroke-width: 1; opacity: 0.8;"></rect><rect class="rect" id="2_55" width="9" height="9" x="1102" y="765.5" style="fill: rgb(224, 224, 224); stroke: black; stroke-width: 1; opacity: 0.8;"></rect><rect class="rect" id="2_56" width="9" height="9" x="1110" y="773.5" style="fill: rgb(160, 160, 160); stroke: black; stroke-width: 1; opacity: 0.8;"></rect><rect class="rect" id="2_57" width="9" height="9" x="1118" y="781.5" style="fill: rgb(224, 224, 224); stroke: black; stroke-width: 1; opacity: 0.8;"></rect><rect class="rect" id="2_58" width="9" height="9" x="1126" y="789.5" style="fill: rgb(160, 160, 160); stroke: black; stroke-width: 1; opacity: 0.8;"></rect><rect class="rect" id="2_59" width="9" height="9" x="1134" y="797.5" style="fill: rgb(224, 224, 224); stroke: black; stroke-width: 1; opacity: 0.8;"></rect><rect class="rect" id="2_60" width="9" height="9" x="1142" y="805.5" style="fill: rgb(160, 160, 160); stroke: black; stroke-width: 1; opacity: 0.8;"></rect><rect class="rect" id="2_61" width="9" height="9" x="1150" y="813.5" style="fill: rgb(224, 224, 224); stroke: black; stroke-width: 1; opacity: 0.8;"></rect><rect class="rect" id="2_62" width="9" height="9" x="1158" y="821.5" style="fill: rgb(160, 160, 160); stroke: black; stroke-width: 1; opacity: 0.8;"></rect><rect class="rect" id="2_63" width="9" height="9" x="1166" y="829.5" style="fill: rgb(224, 224, 224); stroke: black; stroke-width: 1; opacity: 0.8;"></rect><rect class="conv" id="conv_0" width="8" height="8" x="268.68310873698874" y="603.6121452115921" style="fill-opacity: 0; stroke: black; stroke-width: 1; stroke-opacity: 0.8;"></rect><rect class="conv" id="conv_1" width="4" height="4" x="645.5352424543073" y="706.0957339357774" style="fill-opacity: 0; stroke: black; stroke-width: 1; stroke-opacity: 0.8;"></rect><line class="link" id="conv_0" x1="276.68310873698874" y1="611.6121452115921" x2="634.285028614997" y2="709.5821434767347" style="stroke: black; stroke-width: 0.5; stroke-opacity: 0.8;"></line><line class="link" id="conv_0" x1="276.68310873698874" y1="603.6121452115921" x2="634.285028614997" y2="709.5821434767347" style="stroke: black; stroke-width: 0.5; stroke-opacity: 0.8;"></line><line class="link" id="conv_1" x1="649.5352424543073" y1="710.0957339357774" x2="1173.6135738805478" y2="835.1788503388748" style="stroke: black; stroke-width: 0.5; stroke-opacity: 0.8;"></line><line class="link" id="conv_1" x1="649.5352424543073" y1="706.0957339357774" x2="1173.6135738805478" y2="835.1788503388748" style="stroke: black; stroke-width: 0.5; stroke-opacity: 0.8;"></line><text class="text" dy=".35em" font-family="sans-serif" x="416" y="1041" style="font-size: 16px; opacity: 1;">Convolution</text><text class="text" dy=".35em" font-family="sans-serif" x="770.25" y="1041" style="font-size: 16px; opacity: 1;">Convolution</text><text class="text" dy=".35em" font-family="sans-serif" x="1150" y="1041" style="font-size: 16px; opacity: 0;">Convolution</text><text class="info" dy="-0.3em" font-family="sans-serif" x="236" y="513" style="font-size: 16px;">4@84x84</text><text class="info" dy="-0.3em" font-family="sans-serif" x="384" y="433" style="font-size: 16px;">32@20x20</text><text class="info" dy="-0.3em" font-family="sans-serif" x="662" y="310.5" style="font-size: 16px;">64@9x9</text></g></svg>